<svg viewBox="0 0 364 515" xmlns="http://www.w3.org/2000/svg">
<g>
<g>
<g transform="translate(0,0)">
<path d="M0,0 l0,35 l118,0 l0,-35 z" fill="black" stroke="none"/>
<path d="M3,3 l0,29 l112,0 l0,-29 z" fill="white" stroke="none"/>
<text dominant-baseline="middle" fill="black" font-family="monospace" font-size="16" text-anchor="middle" x="59" y="17.5">
----
</text>
</g>
<g transform="translate(112,0)">
<g transform="translate(0,0)">
<path d="M0,0 l-12,16 l12,16 l252,0 l-0,-16 l0,-16 z" fill="black" stroke="none"/>
<text dominant-baseline="middle" fill="white" font-family="monospace" font-size="16" text-anchor="middle" x="39" y="16">
uint8_t
</text>
<g transform="translate(154,5.5)">
<path d="M0,0 a4,4,0,0,0,0,24 l60,0 a4,4,0,0,0,0,-24 z" fill="white" stroke="none"/>
<text dominant-baseline="middle" fill="black" font-family="monospace" font-size="16" text-anchor="middle" x="30" y="12">
byte_A
</text>
</g>
</g>
</g>
<g transform="translate(0,32)">
<path d="M0,0 l0,35 l118,0 l0,-35 z" fill="black" stroke="none"/>
<path d="M3,3 l0,29 l112,0 l0,-29 z" fill="white" stroke="none"/>
<text dominant-baseline="middle" fill="black" font-family="monospace" font-size="16" text-anchor="middle" x="59" y="17.5">
----
</text>
</g>
<g transform="translate(112,32)">
<g transform="translate(0,0)">
<path d="M0,0 l-12,16 l12,16 l252,0 l-0,-16 l0,-16 z" fill="black" stroke="none"/>
<text dominant-baseline="middle" fill="white" font-family="monospace" font-size="16" text-anchor="middle" x="39" y="16">
uint8_t
</text>
<g transform="translate(154,5.5)">
<path d="M0,0 a4,4,0,0,0,0,24 l60,0 a4,4,0,0,0,0,-24 z" fill="white" stroke="none"/>
<text dominant-baseline="middle" fill="black" font-family="monospace" font-size="16" text-anchor="middle" x="30" y="12">
byte_B
</text>
</g>
</g>
</g>
<g transform="translate(0,64)">
<path d="M0,0 l0,35 l118,0 l0,-35 z" fill="black" stroke="none"/>
<path d="M3,3 l0,29 l112,0 l0,-29 z" fill="white" stroke="none"/>
<text dominant-baseline="middle" fill="black" font-family="monospace" font-size="16" text-anchor="middle" x="59" y="17.5">
----
</text>
</g>
<g transform="translate(0,96)">
<path d="M0,0 l0,35 l118,0 l0,-35 z" fill="black" stroke="none"/>
<path d="M3,3 l0,29 l112,0 l0,-29 z" fill="white" stroke="none"/>
<text dominant-baseline="middle" fill="black" font-family="monospace" font-size="16" text-anchor="middle" x="59" y="17.5">
----
</text>
</g>
<g fill="#DDD" transform="translate(112,64)">
<path d="M0,0 l0,67 l240,0 l12,-12 l0,-23 l-0,-16 l0,-16 z" fill="black" stroke="none"/>
<path d="M3,3 l0,61 l235.5,0 l10.5,-10.5 l0,-20 l-0,-17.5 l0,-13 z" stroke="none"/>
<g transform="translate(0,0)">
<path d="M0,0 l-12,16 l12,16 l252,0 l-0,-16 l0,-16 z" fill="black" stroke="none"/>
<text dominant-baseline="middle" fill="white" font-family="monospace" font-size="16" text-anchor="middle" x="44" y="16">
uint16_t
</text>
<g transform="translate(124,5.5)">
<path d="M0,0 a4,4,0,0,0,0,24 l90,0 a4,4,0,0,0,0,-24 z" fill="white" stroke="none"/>
<text dominant-baseline="middle" fill="black" font-family="monospace" font-size="16" text-anchor="middle" x="45" y="12">
two_bytes
</text>
</g>
</g>
</g>
<g transform="translate(0,128)">
<path d="M0,0 l0,35 l118,0 l0,-35 z" fill="black" stroke="none"/>
<path d="M3,3 l0,29 l112,0 l0,-29 z" fill="white" stroke="none"/>
<text dominant-baseline="middle" fill="black" font-family="monospace" font-size="16" text-anchor="middle" x="59" y="17.5">
----
</text>
</g>
<g transform="translate(0,160)">
<path d="M0,0 l0,35 l118,0 l0,-35 z" fill="black" stroke="none"/>
<path d="M3,3 l0,29 l112,0 l0,-29 z" fill="white" stroke="none"/>
<text dominant-baseline="middle" fill="black" font-family="monospace" font-size="16" text-anchor="middle" x="59" y="17.5">
----
</text>
</g>
<g transform="translate(0,192)">
<path d="M0,0 l0,35 l118,0 l0,-35 z" fill="black" stroke="none"/>
<path d="M3,3 l0,29 l112,0 l0,-29 z" fill="white" stroke="none"/>
<text dominant-baseline="middle" fill="black" font-family="monospace" font-size="16" text-anchor="middle" x="59" y="17.5">
----
</text>
</g>
<g transform="translate(0,224)">
<path d="M0,0 l0,35 l118,0 l0,-35 z" fill="black" stroke="none"/>
<path d="M3,3 l0,29 l112,0 l0,-29 z" fill="white" stroke="none"/>
<text dominant-baseline="middle" fill="black" font-family="monospace" font-size="16" text-anchor="middle" x="59" y="17.5">
----
</text>
</g>
<g fill="#DDD" transform="translate(112,128)">
<path d="M0,0 l0,131 l240,0 l12,-12 l0,-87 l-0,-16 l0,-16 z" fill="black" stroke="none"/>
<path d="M3,3 l0,125 l235.5,0 l10.5,-10.5 l0,-84 l-0,-17.5 l0,-13 z" stroke="none"/>
<g transform="translate(0,0)">
<path d="M0,0 l-12,16 l12,16 l252,0 l-0,-16 l0,-16 z" fill="black" stroke="none"/>
<text dominant-baseline="middle" fill="white" font-family="monospace" font-size="16" text-anchor="middle" x="44" y="16">
uint32_t
</text>
<g transform="translate(114,5.5)">
<path d="M0,0 a4,4,0,0,0,0,24 l100,0 a4,4,0,0,0,0,-24 z" fill="white" stroke="none"/>
<text dominant-baseline="middle" fill="black" font-family="monospace" font-size="16" text-anchor="middle" x="50" y="12">
four_bytes
</text>
</g>
</g>
</g>
<g transform="translate(0,256)">
<path d="M0,0 l0,35 l118,0 l0,-35 z" fill="black" stroke="none"/>
<path d="M3,3 l0,29 l112,0 l0,-29 z" fill="white" stroke="none"/>
<text dominant-baseline="middle" fill="black" font-family="monospace" font-size="16" text-anchor="middle" x="59" y="17.5">
----
</text>
</g>
<g transform="translate(0,288)">
<path d="M0,0 l0,35 l118,0 l0,-35 z" fill="black" stroke="none"/>
<path d="M3,3 l0,29 l112,0 l0,-29 z" fill="white" stroke="none"/>
<text dominant-baseline="middle" fill="black" font-family="monospace" font-size="16" text-anchor="middle" x="59" y="17.5">
----
</text>
</g>
<g transform="translate(0,320)">
<path d="M0,0 l0,35 l118,0 l0,-35 z" fill="black" stroke="none"/>
<path d="M3,3 l0,29 l112,0 l0,-29 z" fill="white" stroke="none"/>
<text dominant-baseline="middle" fill="black" font-family="monospace" font-size="16" text-anchor="middle" x="59" y="17.5">
----
</text>
</g>
<g transform="translate(0,352)">
<path d="M0,0 l0,35 l118,0 l0,-35 z" fill="black" stroke="none"/>
<path d="M3,3 l0,29 l112,0 l0,-29 z" fill="white" stroke="none"/>
<text dominant-baseline="middle" fill="black" font-family="monospace" font-size="16" text-anchor="middle" x="59" y="17.5">
----
</text>
</g>
<g transform="translate(0,384)">
<path d="M0,0 l0,35 l118,0 l0,-35 z" fill="black" stroke="none"/>
<path d="M3,3 l0,29 l112,0 l0,-29 z" fill="white" stroke="none"/>
<text dominant-baseline="middle" fill="black" font-family="monospace" font-size="16" text-anchor="middle" x="59" y="17.5">
----
</text>
</g>
<g transform="translate(0,416)">
<path d="M0,0 l0,35 l118,0 l0,-35 z" fill="black" stroke="none"/>
<path d="M3,3 l0,29 l112,0 l0,-29 z" fill="white" stroke="none"/>
<text dominant-baseline="middle" fill="black" font-family="monospace" font-size="16" text-anchor="middle" x="59" y="17.5">
----
</text>
</g>
<g transform="translate(0,448)">
<path d="M0,0 l0,35 l118,0 l0,-35 z" fill="black" stroke="none"/>
<path d="M3,3 l0,29 l112,0 l0,-29 z" fill="white" stroke="none"/>
<text dominant-baseline="middle" fill="black" font-family="monospace" font-size="16" text-anchor="middle" x="59" y="17.5">
----
</text>
</g>
<g transform="translate(0,480)">
<path d="M0,0 l0,35 l118,0 l0,-35 z" fill="black" stroke="none"/>
<path d="M3,3 l0,29 l112,0 l0,-29 z" fill="white" stroke="none"/>
<text dominant-baseline="middle" fill="black" font-family="monospace" font-size="16" text-anchor="middle" x="59" y="17.5">
----
</text>
</g>
<g fill="#DDD" transform="translate(112,256)">
<path d="M0,0 l0,259 l240,0 l12,-12 l0,-215 l-0,-16 l0,-16 z" fill="black" stroke="none"/>
<path d="M3,3 l0,253 l235.5,0 l10.5,-10.5 l0,-212 l-0,-17.5 l0,-13 z" stroke="none"/>
<g transform="translate(0,0)">
<path d="M0,0 l-12,16 l12,16 l252,0 l-0,-16 l0,-16 z" fill="black" stroke="none"/>
<text dominant-baseline="middle" fill="white" font-family="monospace" font-size="16" text-anchor="middle" x="44" y="16">
uint64_t
</text>
<g transform="translate(104,5.5)">
<path d="M0,0 a4,4,0,0,0,0,24 l110,0 a4,4,0,0,0,0,-24 z" fill="white" stroke="none"/>
<text dominant-baseline="middle" fill="black" font-family="monospace" font-size="16" text-anchor="middle" x="55" y="12">
eight_bytes
</text>
</g>
</g>
</g>
</g>
</g>
</svg>