<svg viewBox="-152.5 0 700.5 835" xmlns="http://www.w3.org/2000/svg">
<g>
<g>
<g transform="translate(0,0)">
<path d="M0,0 l0,35 l118,0 l0,-35 z" fill="black" stroke="none"/>
<path d="M3,3 l0,29 l112,0 l0,-29 z" fill="white" stroke="none"/>
<text dominant-baseline="middle" fill="black" font-family="monospace" font-size="16" text-anchor="middle" x="59" y="17.5">
----
</text>
</g>
<g transform="translate(0,32)">
<path d="M0,0 l0,35 l118,0 l0,-35 z" fill="black" stroke="none"/>
<path d="M3,3 l0,29 l112,0 l0,-29 z" fill="white" stroke="none"/>
<text dominant-baseline="middle" fill="black" font-family="monospace" font-size="16" text-anchor="middle" x="59" y="17.5">
----
</text>
</g>
<g transform="translate(0,64)">
<path d="M0,0 l0,35 l118,0 l0,-35 z" fill="black" stroke="none"/>
<path d="M3,3 l0,29 l112,0 l0,-29 z" fill="white" stroke="none"/>
<text dominant-baseline="middle" fill="black" font-family="monospace" font-size="16" text-anchor="middle" x="59" y="17.5">
----
</text>
</g>
<g transform="translate(-135,0)">
<g transform="translate(0,0)">
<path d="M0,0 a4,17.5,0,0,0,0,35 l138,0 l0,-3 l12,-16 l-12,-16 z" fill="black" stroke="none"/>
<path d="M3,3 a4,14.5,0,0,0,0,29 l132,0 l0,-1.5 l10.5,-14.5 l-9,-13 z" fill="#EEE" stroke="none"/>
<text dominant-baseline="middle" fill="black" font-family="Noto Serif" font-size="16" text-anchor="middle" x="69" y="17.5">
???
</text>
</g>
<g transform="translate(0,32)">
<path d="M0,0 a4,17.5,0,0,0,0,35 l138,0 l0,-3 l12,-16 l-12,-16 z" fill="black" stroke="none"/>
<path d="M3,3 a4,14.5,0,0,0,0,29 l132,0 l0,-1.5 l10.5,-14.5 l-9,-13 z" fill="#EEE" stroke="none"/>
<text dominant-baseline="middle" fill="black" font-family="Noto Serif" font-size="16" text-anchor="middle" x="69" y="17.5">
???
</text>
</g>
<g transform="translate(0,64)">
<path d="M0,0 a4,17.5,0,0,0,0,35 l138,0 l0,-3 l12,-16 l-12,-16 z" fill="black" stroke="none"/>
<path d="M3,3 a4,14.5,0,0,0,0,29 l132,0 l0,-1.5 l10.5,-14.5 l-9,-13 z" fill="#EEE" stroke="none"/>
<text dominant-baseline="middle" fill="black" font-family="Noto Serif" font-size="16" text-anchor="middle" x="69" y="17.5">
???
</text>
</g>
</g>
<g fill="#999" transform="translate(112,0)">
<path d="M0,0 l0,99 l424,0 l12,-12 l0,-55 l-0,-16 l0,-16 z" fill="black" stroke="none"/>
<path d="M3,3 l0,93 l419.5,0 l10.5,-10.5 l0,-52 l-0,-17.5 l0,-13 z" stroke="none"/>
<g transform="translate(0,0)">
<g transform="translate(0,0)">
<path d="M0,0 l-12,16 l12,16 l112,0 l-12,-16 l12,-16 z" fill="black" stroke="none"/>
<text dominant-baseline="middle" fill="white" font-family="monospace" font-size="16" text-anchor="middle" x="24" y="16">
byte
</text>
<g transform="translate(64,5.5)">
<path d="M0,0 a4,4,0,0,0,0,24 l10,0 a4,4,0,0,0,0,-24 z" fill="white" stroke="none"/>
<text dominant-baseline="middle" fill="black" font-family="monospace" font-size="16" text-anchor="middle" x="5" y="12">
x
</text>
</g>
</g>
</g>
<g transform="translate(0,32)">
<g transform="translate(0,0)">
<path d="M0,0 l-12,16 l12,16 l112,0 l-0,-16 l0,-16 z" fill="black" stroke="none"/>
<text dominant-baseline="middle" fill="white" font-family="monospace" font-size="16" text-anchor="middle" x="24" y="16">
byte
</text>
<g transform="translate(64,5.5)">
<path d="M0,0 a4,4,0,0,0,0,24 l10,0 a4,4,0,0,0,0,-24 z" fill="white" stroke="none"/>
<text dominant-baseline="middle" fill="black" font-family="monospace" font-size="16" text-anchor="middle" x="5" y="12">
y
</text>
</g>
</g>
</g>
<g transform="translate(0,64)">
<g transform="translate(0,0)">
<path d="M0,0 l-12,16 l12,16 l112,0 l-0,-16 l0,-16 z" fill="black" stroke="none"/>
<text dominant-baseline="middle" fill="white" font-family="monospace" font-size="16" text-anchor="middle" x="24" y="16">
byte
</text>
<g transform="translate(64,5.5)">
<path d="M0,0 a4,4,0,0,0,0,24 l10,0 a4,4,0,0,0,0,-24 z" fill="white" stroke="none"/>
<text dominant-baseline="middle" fill="black" font-family="monospace" font-size="16" text-anchor="middle" x="5" y="12">
z
</text>
</g>
</g>
</g>
<g transform="translate(118,0)">
<path d="M0,0 l-12,16 l12,16 l318,0 l-0,-16 l0,-16 z" fill="black" stroke="none"/>
<text dominant-baseline="middle" fill="white" font-family="monospace" font-size="16" text-anchor="middle" x="29" y="16">
Point
</text>
<g transform="translate(200,5.5)">
<path d="M0,0 a4,4,0,0,0,0,24 l80,0 a4,4,0,0,0,0,-24 z" fill="white" stroke="none"/>
<text dominant-baseline="middle" fill="black" font-family="monospace" font-size="16" text-anchor="middle" x="40" y="12">
my_point
</text>
</g>
</g>
</g>
<g transform="translate(0,96)">
<path d="M0,0 l0,35 l118,0 l0,-35 z" fill="black" stroke="none"/>
<path d="M3,3 l0,29 l112,0 l0,-29 z" fill="white" stroke="none"/>
<text dominant-baseline="middle" fill="black" font-family="monospace" font-size="16" text-anchor="middle" x="59" y="17.5">
----
</text>
</g>
<g transform="translate(-135,0)">
<g transform="translate(0,96)">
<path d="M0,0 a4,17.5,0,0,0,0,35 l138,0 l0,-3 l12,-16 l-12,-16 z" fill="black" stroke="none"/>
<path d="M3,3 a4,14.5,0,0,0,0,29 l132,0 l0,-1.5 l10.5,-14.5 l-9,-13 z" fill="#EEE" stroke="none"/>
<text dominant-baseline="middle" fill="black" font-family="Noto Serif" font-size="16" text-anchor="middle" x="69" y="17.5">
???
</text>
</g>
</g>
<g transform="translate(112,96)">
<g transform="translate(0,0)">
<path d="M0,0 l-12,16 l12,16 l436,0 l-0,-16 l0,-16 z" fill="black" stroke="none"/>
<text dominant-baseline="middle" fill="white" font-family="monospace" font-size="16" text-anchor="middle" x="39" y="16">
uint8_t
</text>
<g transform="translate(338,5.5)">
<path d="M0,0 a4,4,0,0,0,0,24 l60,0 a4,4,0,0,0,0,-24 z" fill="white" stroke="none"/>
<text dominant-baseline="middle" fill="black" font-family="monospace" font-size="16" text-anchor="middle" x="30" y="12">
byte A
</text>
</g>
</g>
</g>
<g transform="translate(0,128)">
<path d="M0,0 l0,35 l118,0 l0,-35 z" fill="black" stroke="none"/>
<path d="M3,3 l0,29 l112,0 l0,-29 z" fill="white" stroke="none"/>
<text dominant-baseline="middle" fill="black" font-family="monospace" font-size="16" text-anchor="middle" x="59" y="17.5">
----
</text>
</g>
<g transform="translate(0,160)">
<path d="M0,0 l0,35 l118,0 l0,-35 z" fill="black" stroke="none"/>
<path d="M3,3 l0,29 l112,0 l0,-29 z" fill="white" stroke="none"/>
<text dominant-baseline="middle" fill="black" font-family="monospace" font-size="16" text-anchor="middle" x="59" y="17.5">
----
</text>
</g>
<g transform="translate(0,192)">
<path d="M0,0 l0,35 l118,0 l0,-35 z" fill="black" stroke="none"/>
<path d="M3,3 l0,29 l112,0 l0,-29 z" fill="white" stroke="none"/>
<text dominant-baseline="middle" fill="black" font-family="monospace" font-size="16" text-anchor="middle" x="59" y="17.5">
----
</text>
</g>
<g transform="translate(0,224)">
<path d="M0,0 l0,35 l118,0 l0,-35 z" fill="black" stroke="none"/>
<path d="M3,3 l0,29 l112,0 l0,-29 z" fill="white" stroke="none"/>
<text dominant-baseline="middle" fill="black" font-family="monospace" font-size="16" text-anchor="middle" x="59" y="17.5">
----
</text>
</g>
<g transform="translate(0,256)">
<path d="M0,0 l0,35 l118,0 l0,-35 z" fill="black" stroke="none"/>
<path d="M3,3 l0,29 l112,0 l0,-29 z" fill="white" stroke="none"/>
<text dominant-baseline="middle" fill="black" font-family="monospace" font-size="16" text-anchor="middle" x="59" y="17.5">
----
</text>
</g>
<g transform="translate(0,288)">
<path d="M0,0 l0,35 l118,0 l0,-35 z" fill="black" stroke="none"/>
<path d="M3,3 l0,29 l112,0 l0,-29 z" fill="white" stroke="none"/>
<text dominant-baseline="middle" fill="black" font-family="monospace" font-size="16" text-anchor="middle" x="59" y="17.5">
----
</text>
</g>
<g transform="translate(0,320)">
<path d="M0,0 l0,35 l118,0 l0,-35 z" fill="black" stroke="none"/>
<path d="M3,3 l0,29 l112,0 l0,-29 z" fill="white" stroke="none"/>
<text dominant-baseline="middle" fill="black" font-family="monospace" font-size="16" text-anchor="middle" x="59" y="17.5">
----
</text>
</g>
<g transform="translate(0,352)">
<path d="M0,0 l0,35 l118,0 l0,-35 z" fill="black" stroke="none"/>
<path d="M3,3 l0,29 l112,0 l0,-29 z" fill="white" stroke="none"/>
<text dominant-baseline="middle" fill="black" font-family="monospace" font-size="16" text-anchor="middle" x="59" y="17.5">
----
</text>
</g>
<g transform="translate(0,384)">
<path d="M0,0 l0,35 l118,0 l0,-35 z" fill="black" stroke="none"/>
<path d="M3,3 l0,29 l112,0 l0,-29 z" fill="white" stroke="none"/>
<text dominant-baseline="middle" fill="black" font-family="monospace" font-size="16" text-anchor="middle" x="59" y="17.5">
----
</text>
</g>
<g transform="translate(0,416)">
<path d="M0,0 l0,35 l118,0 l0,-35 z" fill="black" stroke="none"/>
<path d="M3,3 l0,29 l112,0 l0,-29 z" fill="white" stroke="none"/>
<text dominant-baseline="middle" fill="black" font-family="monospace" font-size="16" text-anchor="middle" x="59" y="17.5">
----
</text>
</g>
<g transform="translate(0,448)">
<path d="M0,0 l0,35 l118,0 l0,-35 z" fill="black" stroke="none"/>
<path d="M3,3 l0,29 l112,0 l0,-29 z" fill="white" stroke="none"/>
<text dominant-baseline="middle" fill="black" font-family="monospace" font-size="16" text-anchor="middle" x="59" y="17.5">
----
</text>
</g>
<g transform="translate(0,480)">
<path d="M0,0 l0,35 l118,0 l0,-35 z" fill="black" stroke="none"/>
<path d="M3,3 l0,29 l112,0 l0,-29 z" fill="white" stroke="none"/>
<text dominant-baseline="middle" fill="black" font-family="monospace" font-size="16" text-anchor="middle" x="59" y="17.5">
----
</text>
</g>
<g transform="translate(0,512)">
<path d="M0,0 l0,35 l118,0 l0,-35 z" fill="black" stroke="none"/>
<path d="M3,3 l0,29 l112,0 l0,-29 z" fill="white" stroke="none"/>
<text dominant-baseline="middle" fill="black" font-family="monospace" font-size="16" text-anchor="middle" x="59" y="17.5">
----
</text>
</g>
<g transform="translate(0,544)">
<path d="M0,0 l0,35 l118,0 l0,-35 z" fill="black" stroke="none"/>
<path d="M3,3 l0,29 l112,0 l0,-29 z" fill="white" stroke="none"/>
<text dominant-baseline="middle" fill="black" font-family="monospace" font-size="16" text-anchor="middle" x="59" y="17.5">
----
</text>
</g>
<g transform="translate(0,576)">
<path d="M0,0 l0,35 l118,0 l0,-35 z" fill="black" stroke="none"/>
<path d="M3,3 l0,29 l112,0 l0,-29 z" fill="white" stroke="none"/>
<text dominant-baseline="middle" fill="black" font-family="monospace" font-size="16" text-anchor="middle" x="59" y="17.5">
----
</text>
</g>
<g transform="translate(0,608)">
<path d="M0,0 l0,35 l118,0 l0,-35 z" fill="black" stroke="none"/>
<path d="M3,3 l0,29 l112,0 l0,-29 z" fill="white" stroke="none"/>
<text dominant-baseline="middle" fill="black" font-family="monospace" font-size="16" text-anchor="middle" x="59" y="17.5">
----
</text>
</g>
<g transform="translate(0,640)">
<path d="M0,0 l0,35 l118,0 l0,-35 z" fill="black" stroke="none"/>
<path d="M3,3 l0,29 l112,0 l0,-29 z" fill="white" stroke="none"/>
<text dominant-baseline="middle" fill="black" font-family="monospace" font-size="16" text-anchor="middle" x="59" y="17.5">
----
</text>
</g>
<g transform="translate(0,672)">
<path d="M0,0 l0,35 l118,0 l0,-35 z" fill="black" stroke="none"/>
<path d="M3,3 l0,29 l112,0 l0,-29 z" fill="white" stroke="none"/>
<text dominant-baseline="middle" fill="black" font-family="monospace" font-size="16" text-anchor="middle" x="59" y="17.5">
----
</text>
</g>
<g transform="translate(0,704)">
<path d="M0,0 l0,35 l118,0 l0,-35 z" fill="black" stroke="none"/>
<path d="M3,3 l0,29 l112,0 l0,-29 z" fill="white" stroke="none"/>
<text dominant-baseline="middle" fill="black" font-family="monospace" font-size="16" text-anchor="middle" x="59" y="17.5">
----
</text>
</g>
<g transform="translate(0,736)">
<path d="M0,0 l0,35 l118,0 l0,-35 z" fill="black" stroke="none"/>
<path d="M3,3 l0,29 l112,0 l0,-29 z" fill="white" stroke="none"/>
<text dominant-baseline="middle" fill="black" font-family="monospace" font-size="16" text-anchor="middle" x="59" y="17.5">
----
</text>
</g>
<g transform="translate(0,768)">
<path d="M0,0 l0,35 l118,0 l0,-35 z" fill="black" stroke="none"/>
<path d="M3,3 l0,29 l112,0 l0,-29 z" fill="white" stroke="none"/>
<text dominant-baseline="middle" fill="black" font-family="monospace" font-size="16" text-anchor="middle" x="59" y="17.5">
----
</text>
</g>
<g transform="translate(0,800)">
<path d="M0,0 l0,35 l118,0 l0,-35 z" fill="black" stroke="none"/>
<path d="M3,3 l0,29 l112,0 l0,-29 z" fill="white" stroke="none"/>
<text dominant-baseline="middle" fill="black" font-family="monospace" font-size="16" text-anchor="middle" x="59" y="17.5">
----
</text>
</g>
<g transform="translate(-135,0)">
<g transform="translate(0,128)">
<path d="M0,0 a4,33.5,0,0,0,0,67 l138,0 l0,-35 l12,-16 l-12,-16 z" fill="black" stroke="none"/>
<path d="M3,3 a4,30.5,0,0,0,0,61 l132,0 l0,-33.5 l10.5,-14.5 l-9,-13 z" fill="#EEE" stroke="none"/>
<text dominant-baseline="middle" fill="black" font-family="Noto Serif" font-size="16" text-anchor="middle" x="69" y="33.5">
???
</text>
</g>
<g transform="translate(0,192)">
<path d="M0,0 a4,33.5,0,0,0,0,67 l138,0 l0,-35 l12,-16 l-12,-16 z" fill="black" stroke="none"/>
<path d="M3,3 a4,30.5,0,0,0,0,61 l132,0 l0,-33.5 l10.5,-14.5 l-9,-13 z" fill="#EEE" stroke="none"/>
<text dominant-baseline="middle" fill="black" font-family="Noto Serif" font-size="16" text-anchor="middle" x="69" y="33.5">
???
</text>
</g>
<g transform="translate(0,256)">
<path d="M0,0 a4,33.5,0,0,0,0,67 l138,0 l0,-35 l12,-16 l-12,-16 z" fill="black" stroke="none"/>
<path d="M3,3 a4,30.5,0,0,0,0,61 l132,0 l0,-33.5 l10.5,-14.5 l-9,-13 z" fill="#EEE" stroke="none"/>
<text dominant-baseline="middle" fill="black" font-family="Noto Serif" font-size="16" text-anchor="middle" x="69" y="33.5">
???
</text>
</g>
<g transform="translate(0,320)">
<path d="M0,0 a4,33.5,0,0,0,0,67 l138,0 l0,-35 l12,-16 l-12,-16 z" fill="black" stroke="none"/>
<path d="M3,3 a4,30.5,0,0,0,0,61 l132,0 l0,-33.5 l10.5,-14.5 l-9,-13 z" fill="#EEE" stroke="none"/>
<text dominant-baseline="middle" fill="black" font-family="Noto Serif" font-size="16" text-anchor="middle" x="69" y="33.5">
???
</text>
</g>
<g transform="translate(0,384)">
<path d="M0,0 a4,33.5,0,0,0,0,67 l138,0 l0,-35 l12,-16 l-12,-16 z" fill="black" stroke="none"/>
<path d="M3,3 a4,30.5,0,0,0,0,61 l132,0 l0,-33.5 l10.5,-14.5 l-9,-13 z" fill="#EEE" stroke="none"/>
<text dominant-baseline="middle" fill="black" font-family="Noto Serif" font-size="16" text-anchor="middle" x="69" y="33.5">
???
</text>
</g>
<g transform="translate(0,448)">
<path d="M0,0 a4,33.5,0,0,0,0,67 l138,0 l0,-35 l12,-16 l-12,-16 z" fill="black" stroke="none"/>
<path d="M3,3 a4,30.5,0,0,0,0,61 l132,0 l0,-33.5 l10.5,-14.5 l-9,-13 z" fill="#EEE" stroke="none"/>
<text dominant-baseline="middle" fill="black" font-family="Noto Serif" font-size="16" text-anchor="middle" x="69" y="33.5">
???
</text>
</g>
<g transform="translate(0,512)">
<path d="M0,0 a4,33.5,0,0,0,0,67 l138,0 l0,-35 l12,-16 l-12,-16 z" fill="black" stroke="none"/>
<path d="M3,3 a4,30.5,0,0,0,0,61 l132,0 l0,-33.5 l10.5,-14.5 l-9,-13 z" fill="#EEE" stroke="none"/>
<text dominant-baseline="middle" fill="black" font-family="Noto Serif" font-size="16" text-anchor="middle" x="69" y="33.5">
???
</text>
</g>
<g transform="translate(0,576)">
<path d="M0,0 a4,33.5,0,0,0,0,67 l138,0 l0,-35 l12,-16 l-12,-16 z" fill="black" stroke="none"/>
<path d="M3,3 a4,30.5,0,0,0,0,61 l132,0 l0,-33.5 l10.5,-14.5 l-9,-13 z" fill="#EEE" stroke="none"/>
<text dominant-baseline="middle" fill="black" font-family="Noto Serif" font-size="16" text-anchor="middle" x="69" y="33.5">
???
</text>
</g>
<g transform="translate(0,640)">
<path d="M0,0 a4,33.5,0,0,0,0,67 l138,0 l0,-35 l12,-16 l-12,-16 z" fill="black" stroke="none"/>
<path d="M3,3 a4,30.5,0,0,0,0,61 l132,0 l0,-33.5 l10.5,-14.5 l-9,-13 z" fill="#EEE" stroke="none"/>
<text dominant-baseline="middle" fill="black" font-family="Noto Serif" font-size="16" text-anchor="middle" x="69" y="33.5">
???
</text>
</g>
<g transform="translate(0,704)">
<path d="M0,0 a4,33.5,0,0,0,0,67 l138,0 l0,-35 l12,-16 l-12,-16 z" fill="black" stroke="none"/>
<path d="M3,3 a4,30.5,0,0,0,0,61 l132,0 l0,-33.5 l10.5,-14.5 l-9,-13 z" fill="#EEE" stroke="none"/>
<text dominant-baseline="middle" fill="black" font-family="Noto Serif" font-size="16" text-anchor="middle" x="69" y="33.5">
???
</text>
</g>
<g transform="translate(0,768)">
<path d="M0,0 a4,33.5,0,0,0,0,67 l138,0 l0,-35 l12,-16 l-12,-16 z" fill="black" stroke="none"/>
<path d="M3,3 a4,30.5,0,0,0,0,61 l132,0 l0,-33.5 l10.5,-14.5 l-9,-13 z" fill="#EEE" stroke="none"/>
<text dominant-baseline="middle" fill="black" font-family="Noto Serif" font-size="16" text-anchor="middle" x="69" y="33.5">
???
</text>
</g>
</g>
<g fill="#777" transform="translate(112,128)">
<path d="M0,0 l0,707 l424,0 l12,-12 l0,-663 l-0,-16 l0,-16 z" fill="black" stroke="none"/>
<path d="M3,3 l0,701 l419.5,0 l10.5,-10.5 l0,-660 l-0,-17.5 l0,-13 z" stroke="none"/>
<g fill="#DDD" transform="translate(0,0)">
<path d="M0,0 l0,67 l150,0 l12,-12 l0,-23 l-12,-16 l12,-16 z" fill="black" stroke="none"/>
<path d="M3,3 l0,61 l145.5,0 l10.5,-10.5 l0,-20 l-12,-17.5 l12,-13 z" stroke="none"/>
<g transform="translate(0,0)">
<path d="M0,0 l-12,16 l12,16 l162,0 l-12,-16 l12,-16 z" fill="black" stroke="none"/>
<text dominant-baseline="middle" fill="white" font-family="monospace" font-size="16" text-anchor="middle" x="44" y="16">
uint16_t
</text>
<g transform="translate(114,5.5)">
<path d="M0,0 a4,4,0,0,0,0,24 l10,0 a4,4,0,0,0,0,-24 z" fill="white" stroke="none"/>
<text dominant-baseline="middle" fill="black" font-family="monospace" font-size="16" text-anchor="middle" x="5" y="12">
0
</text>
</g>
</g>
</g>
<g fill="#999" transform="translate(0,64)">
<path d="M0,0 l0,67 l150,0 l12,-12 l0,-23 l-0,-16 l0,-16 z" fill="black" stroke="none"/>
<path d="M3,3 l0,61 l145.5,0 l10.5,-10.5 l0,-20 l-0,-17.5 l0,-13 z" stroke="none"/>
<g transform="translate(0,0)">
<path d="M0,0 l-12,16 l12,16 l162,0 l-0,-16 l0,-16 z" fill="black" stroke="none"/>
<text dominant-baseline="middle" fill="white" font-family="monospace" font-size="16" text-anchor="middle" x="44" y="16">
uint16_t
</text>
<g transform="translate(114,5.5)">
<path d="M0,0 a4,4,0,0,0,0,24 l10,0 a4,4,0,0,0,0,-24 z" fill="white" stroke="none"/>
<text dominant-baseline="middle" fill="black" font-family="monospace" font-size="16" text-anchor="middle" x="5" y="12">
1
</text>
</g>
</g>
</g>
<g fill="#BBB" transform="translate(0,128)">
<path d="M0,0 l0,67 l150,0 l12,-12 l0,-23 l-0,-16 l0,-16 z" fill="black" stroke="none"/>
<path d="M3,3 l0,61 l145.5,0 l10.5,-10.5 l0,-20 l-0,-17.5 l0,-13 z" stroke="none"/>
<g transform="translate(0,0)">
<path d="M0,0 l-12,16 l12,16 l162,0 l-0,-16 l0,-16 z" fill="black" stroke="none"/>
<text dominant-baseline="middle" fill="white" font-family="monospace" font-size="16" text-anchor="middle" x="44" y="16">
uint16_t
</text>
<g transform="translate(114,5.5)">
<path d="M0,0 a4,4,0,0,0,0,24 l10,0 a4,4,0,0,0,0,-24 z" fill="white" stroke="none"/>
<text dominant-baseline="middle" fill="black" font-family="monospace" font-size="16" text-anchor="middle" x="5" y="12">
2
</text>
</g>
</g>
</g>
<g fill="#999" transform="translate(0,192)">
<path d="M0,0 l0,67 l150,0 l12,-12 l0,-23 l-0,-16 l0,-16 z" fill="black" stroke="none"/>
<path d="M3,3 l0,61 l145.5,0 l10.5,-10.5 l0,-20 l-0,-17.5 l0,-13 z" stroke="none"/>
<g transform="translate(0,0)">
<path d="M0,0 l-12,16 l12,16 l162,0 l-0,-16 l0,-16 z" fill="black" stroke="none"/>
<text dominant-baseline="middle" fill="white" font-family="monospace" font-size="16" text-anchor="middle" x="44" y="16">
uint16_t
</text>
<g transform="translate(114,5.5)">
<path d="M0,0 a4,4,0,0,0,0,24 l10,0 a4,4,0,0,0,0,-24 z" fill="white" stroke="none"/>
<text dominant-baseline="middle" fill="black" font-family="monospace" font-size="16" text-anchor="middle" x="5" y="12">
3
</text>
</g>
</g>
</g>
<g fill="#BBB" transform="translate(0,256)">
<path d="M0,0 l0,67 l150,0 l12,-12 l0,-23 l-0,-16 l0,-16 z" fill="black" stroke="none"/>
<path d="M3,3 l0,61 l145.5,0 l10.5,-10.5 l0,-20 l-0,-17.5 l0,-13 z" stroke="none"/>
<g transform="translate(0,0)">
<path d="M0,0 l-12,16 l12,16 l162,0 l-0,-16 l0,-16 z" fill="black" stroke="none"/>
<text dominant-baseline="middle" fill="white" font-family="monospace" font-size="16" text-anchor="middle" x="44" y="16">
uint16_t
</text>
<g transform="translate(114,5.5)">
<path d="M0,0 a4,4,0,0,0,0,24 l10,0 a4,4,0,0,0,0,-24 z" fill="white" stroke="none"/>
<text dominant-baseline="middle" fill="black" font-family="monospace" font-size="16" text-anchor="middle" x="5" y="12">
4
</text>
</g>
</g>
</g>
<g fill="#999" transform="translate(0,320)">
<path d="M0,0 l0,67 l150,0 l12,-12 l0,-23 l-0,-16 l0,-16 z" fill="black" stroke="none"/>
<path d="M3,3 l0,61 l145.5,0 l10.5,-10.5 l0,-20 l-0,-17.5 l0,-13 z" stroke="none"/>
<g transform="translate(0,0)">
<path d="M0,0 l-12,16 l12,16 l162,0 l-0,-16 l0,-16 z" fill="black" stroke="none"/>
<text dominant-baseline="middle" fill="white" font-family="monospace" font-size="16" text-anchor="middle" x="44" y="16">
uint16_t
</text>
<g transform="translate(114,5.5)">
<path d="M0,0 a4,4,0,0,0,0,24 l10,0 a4,4,0,0,0,0,-24 z" fill="white" stroke="none"/>
<text dominant-baseline="middle" fill="black" font-family="monospace" font-size="16" text-anchor="middle" x="5" y="12">
5
</text>
</g>
</g>
</g>
<g fill="#BBB" transform="translate(0,384)">
<path d="M0,0 l0,67 l150,0 l12,-12 l0,-23 l-0,-16 l0,-16 z" fill="black" stroke="none"/>
<path d="M3,3 l0,61 l145.5,0 l10.5,-10.5 l0,-20 l-0,-17.5 l0,-13 z" stroke="none"/>
<g transform="translate(0,0)">
<path d="M0,0 l-12,16 l12,16 l162,0 l-0,-16 l0,-16 z" fill="black" stroke="none"/>
<text dominant-baseline="middle" fill="white" font-family="monospace" font-size="16" text-anchor="middle" x="44" y="16">
uint16_t
</text>
<g transform="translate(114,5.5)">
<path d="M0,0 a4,4,0,0,0,0,24 l10,0 a4,4,0,0,0,0,-24 z" fill="white" stroke="none"/>
<text dominant-baseline="middle" fill="black" font-family="monospace" font-size="16" text-anchor="middle" x="5" y="12">
6
</text>
</g>
</g>
</g>
<g fill="#999" transform="translate(0,448)">
<path d="M0,0 l0,67 l150,0 l12,-12 l0,-23 l-0,-16 l0,-16 z" fill="black" stroke="none"/>
<path d="M3,3 l0,61 l145.5,0 l10.5,-10.5 l0,-20 l-0,-17.5 l0,-13 z" stroke="none"/>
<g transform="translate(0,0)">
<path d="M0,0 l-12,16 l12,16 l162,0 l-0,-16 l0,-16 z" fill="black" stroke="none"/>
<text dominant-baseline="middle" fill="white" font-family="monospace" font-size="16" text-anchor="middle" x="44" y="16">
uint16_t
</text>
<g transform="translate(114,5.5)">
<path d="M0,0 a4,4,0,0,0,0,24 l10,0 a4,4,0,0,0,0,-24 z" fill="white" stroke="none"/>
<text dominant-baseline="middle" fill="black" font-family="monospace" font-size="16" text-anchor="middle" x="5" y="12">
7
</text>
</g>
</g>
</g>
<g fill="#BBB" transform="translate(0,512)">
<path d="M0,0 l0,67 l150,0 l12,-12 l0,-23 l-0,-16 l0,-16 z" fill="black" stroke="none"/>
<path d="M3,3 l0,61 l145.5,0 l10.5,-10.5 l0,-20 l-0,-17.5 l0,-13 z" stroke="none"/>
<g transform="translate(0,0)">
<path d="M0,0 l-12,16 l12,16 l162,0 l-0,-16 l0,-16 z" fill="black" stroke="none"/>
<text dominant-baseline="middle" fill="white" font-family="monospace" font-size="16" text-anchor="middle" x="44" y="16">
uint16_t
</text>
<g transform="translate(114,5.5)">
<path d="M0,0 a4,4,0,0,0,0,24 l10,0 a4,4,0,0,0,0,-24 z" fill="white" stroke="none"/>
<text dominant-baseline="middle" fill="black" font-family="monospace" font-size="16" text-anchor="middle" x="5" y="12">
8
</text>
</g>
</g>
</g>
<g fill="#999" transform="translate(0,576)">
<path d="M0,0 l0,67 l150,0 l12,-12 l0,-23 l-0,-16 l0,-16 z" fill="black" stroke="none"/>
<path d="M3,3 l0,61 l145.5,0 l10.5,-10.5 l0,-20 l-0,-17.5 l0,-13 z" stroke="none"/>
<g transform="translate(0,0)">
<path d="M0,0 l-12,16 l12,16 l162,0 l-0,-16 l0,-16 z" fill="black" stroke="none"/>
<text dominant-baseline="middle" fill="white" font-family="monospace" font-size="16" text-anchor="middle" x="44" y="16">
uint16_t
</text>
<g transform="translate(114,5.5)">
<path d="M0,0 a4,4,0,0,0,0,24 l10,0 a4,4,0,0,0,0,-24 z" fill="white" stroke="none"/>
<text dominant-baseline="middle" fill="black" font-family="monospace" font-size="16" text-anchor="middle" x="5" y="12">
9
</text>
</g>
</g>
</g>
<g fill="#BBB" transform="translate(0,640)">
<path d="M0,0 l0,67 l150,0 l12,-12 l0,-23 l-0,-16 l0,-16 z" fill="black" stroke="none"/>
<path d="M3,3 l0,61 l145.5,0 l10.5,-10.5 l0,-20 l-0,-17.5 l0,-13 z" stroke="none"/>
<g transform="translate(0,0)">
<path d="M0,0 l-12,16 l12,16 l162,0 l-0,-16 l0,-16 z" fill="black" stroke="none"/>
<text dominant-baseline="middle" fill="white" font-family="monospace" font-size="16" text-anchor="middle" x="44" y="16">
uint16_t
</text>
<g transform="translate(104,5.5)">
<path d="M0,0 a4,4,0,0,0,0,24 l20,0 a4,4,0,0,0,0,-24 z" fill="white" stroke="none"/>
<text dominant-baseline="middle" fill="black" font-family="monospace" font-size="16" text-anchor="middle" x="10" y="12">
10
</text>
</g>
</g>
</g>
<g transform="translate(168,0)">
<path d="M0,0 l-12,16 l12,16 l268,0 l-0,-16 l0,-16 z" fill="black" stroke="none"/>
<text dominant-baseline="middle" fill="white" font-family="monospace" font-size="16" text-anchor="middle" x="64" y="16">
uint16_t[11]
</text>
<g transform="translate(150,5.5)">
<path d="M0,0 a4,4,0,0,0,0,24 l80,0 a4,4,0,0,0,0,-24 z" fill="white" stroke="none"/>
<text dominant-baseline="middle" fill="black" font-family="monospace" font-size="16" text-anchor="middle" x="40" y="12">
my_array
</text>
</g>
</g>
</g>
</g>
</g>
</svg>