<svg viewBox="0 0 1100 800" xmlns="http://www.w3.org/2000/svg">
<g fill="red" transform="translate(16,16)">
<path d="M0,0 l0,771 l1022,0 l12,-13.5 l0,-725.5 l-0,-16 l0,-16 z" fill="black" stroke="none"/>
<path d="M3,3 l0,765 l1017.5,0 l10.5,-12 l0,-722.5 l-0,-17.5 l0,-14.5 z" stroke="none"/>
<g fill="blue" transform="translate(0,0)">
<path d="M0,0 l0,195 l952,0 l12,-13.5 l0,-149.5 l-12,-16 l12,-16 z" fill="black" stroke="none"/>
<path d="M3,3 l0,189 l947.5,0 l10.5,-12 l0,-146.5 l-12,-17.5 l12,-14.5 z" stroke="none"/>
<g fill="cyan" transform="translate(0,0)">
<path d="M0,0 l0,195 l236,0 l12,-13.5 l0,-149.5 l-0,-16 l0,-16 z" fill="black" stroke="none"/>
<path d="M3,3 l0,189 l231.5,0 l10.5,-12 l0,-146.5 l-0,-17.5 l0,-14.5 z" stroke="none"/>
<g fill="red" transform="translate(0,0)">
<path d="M0,0 l0,67 l124,0 l12,-13.5 l0,-21.5 l-12,-16 l12,-16 z" fill="black" stroke="none"/>
<path d="M3,3 l0,61 l119.5,0 l10.5,-12 l0,-18.5 l-12,-17.5 l12,-14.5 z" stroke="none"/>
<g transform="translate(0,0)">
<path d="M0,0 l-12,16 l12,16 l136,0 l-12,-16 l12,-16 z" fill="black" stroke="none"/>
<text dominant-baseline="middle" fill="white" font-family="monospace" font-size="16" text-anchor="middle" x="44" y="16">
uint16_t
</text>
<g transform="translate(102,4)">
<path d="M0,0 a4,4,0,0,0,0,24 l10,0 a4,4,0,0,0,0,-24 z" fill="white" stroke="none"/>
<text dominant-baseline="middle" fill="black" font-family="monospace" font-size="16" text-anchor="middle" x="5" y="12">
x
</text>
</g>
</g>
</g>
<g fill="green" transform="translate(0,64)">
<path d="M0,0 l0,67 l124,0 l12,-13.5 l0,-21.5 l-0,-16 l0,-16 z" fill="black" stroke="none"/>
<path d="M3,3 l0,61 l119.5,0 l10.5,-12 l0,-18.5 l-0,-17.5 l0,-14.5 z" stroke="none"/>
<g transform="translate(0,0)">
<path d="M0,0 l-12,16 l12,16 l136,0 l-0,-16 l0,-16 z" fill="black" stroke="none"/>
<text dominant-baseline="middle" fill="white" font-family="monospace" font-size="16" text-anchor="middle" x="44" y="16">
uint16_t
</text>
<g transform="translate(102,4)">
<path d="M0,0 a4,4,0,0,0,0,24 l10,0 a4,4,0,0,0,0,-24 z" fill="white" stroke="none"/>
<text dominant-baseline="middle" fill="black" font-family="monospace" font-size="16" text-anchor="middle" x="5" y="12">
y
</text>
</g>
</g>
</g>
<g fill="blue" transform="translate(0,128)">
<path d="M0,0 l0,67 l124,0 l12,-13.5 l0,-21.5 l-0,-16 l0,-16 z" fill="black" stroke="none"/>
<path d="M3,3 l0,61 l119.5,0 l10.5,-12 l0,-18.5 l-0,-17.5 l0,-14.5 z" stroke="none"/>
<g transform="translate(0,0)">
<path d="M0,0 l-12,16 l12,16 l136,0 l-0,-16 l0,-16 z" fill="black" stroke="none"/>
<text dominant-baseline="middle" fill="white" font-family="monospace" font-size="16" text-anchor="middle" x="44" y="16">
uint16_t
</text>
<g transform="translate(102,4)">
<path d="M0,0 a4,4,0,0,0,0,24 l10,0 a4,4,0,0,0,0,-24 z" fill="white" stroke="none"/>
<text dominant-baseline="middle" fill="black" font-family="monospace" font-size="16" text-anchor="middle" x="5" y="12">
z
</text>
</g>
</g>
</g>
<g transform="translate(142,0)">
<path d="M0,0 l-12,16 l12,16 l106,0 l-0,-16 l0,-16 z" fill="black" stroke="none"/>
<text dominant-baseline="middle" fill="white" font-family="monospace" font-size="16" text-anchor="middle" x="29" y="16">
Point
</text>
<g transform="translate(72,4)">
<path d="M0,0 a4,4,0,0,0,0,24 l10,0 a4,4,0,0,0,0,-24 z" fill="white" stroke="none"/>
<text dominant-baseline="middle" fill="black" font-family="monospace" font-size="16" text-anchor="middle" x="5" y="12">
a
</text>
</g>
</g>
</g>
<g fill="green" transform="translate(272,0)">
<path d="M0,0 l0,195 l236,0 l12,-13.5 l0,-149.5 l-0,-16 l0,-16 z" fill="black" stroke="none"/>
<path d="M3,3 l0,189 l231.5,0 l10.5,-12 l0,-146.5 l-0,-17.5 l0,-14.5 z" stroke="none"/>
<g fill="red" transform="translate(0,0)">
<path d="M0,0 l0,67 l124,0 l12,-13.5 l0,-21.5 l-12,-16 l12,-16 z" fill="black" stroke="none"/>
<path d="M3,3 l0,61 l119.5,0 l10.5,-12 l0,-18.5 l-12,-17.5 l12,-14.5 z" stroke="none"/>
<g transform="translate(0,0)">
<path d="M0,0 l-12,16 l12,16 l136,0 l-12,-16 l12,-16 z" fill="black" stroke="none"/>
<text dominant-baseline="middle" fill="white" font-family="monospace" font-size="16" text-anchor="middle" x="44" y="16">
uint16_t
</text>
<g transform="translate(102,4)">
<path d="M0,0 a4,4,0,0,0,0,24 l10,0 a4,4,0,0,0,0,-24 z" fill="white" stroke="none"/>
<text dominant-baseline="middle" fill="black" font-family="monospace" font-size="16" text-anchor="middle" x="5" y="12">
x
</text>
</g>
</g>
</g>
<g fill="cyan" transform="translate(0,64)">
<path d="M0,0 l0,67 l124,0 l12,-13.5 l0,-21.5 l-0,-16 l0,-16 z" fill="black" stroke="none"/>
<path d="M3,3 l0,61 l119.5,0 l10.5,-12 l0,-18.5 l-0,-17.5 l0,-14.5 z" stroke="none"/>
<g transform="translate(0,0)">
<path d="M0,0 l-12,16 l12,16 l136,0 l-0,-16 l0,-16 z" fill="black" stroke="none"/>
<text dominant-baseline="middle" fill="white" font-family="monospace" font-size="16" text-anchor="middle" x="44" y="16">
uint16_t
</text>
<g transform="translate(102,4)">
<path d="M0,0 a4,4,0,0,0,0,24 l10,0 a4,4,0,0,0,0,-24 z" fill="white" stroke="none"/>
<text dominant-baseline="middle" fill="black" font-family="monospace" font-size="16" text-anchor="middle" x="5" y="12">
y
</text>
</g>
</g>
</g>
<g fill="magenta" transform="translate(0,128)">
<path d="M0,0 l0,67 l124,0 l12,-13.5 l0,-21.5 l-0,-16 l0,-16 z" fill="black" stroke="none"/>
<path d="M3,3 l0,61 l119.5,0 l10.5,-12 l0,-18.5 l-0,-17.5 l0,-14.5 z" stroke="none"/>
<g transform="translate(0,0)">
<path d="M0,0 l-12,16 l12,16 l136,0 l-0,-16 l0,-16 z" fill="black" stroke="none"/>
<text dominant-baseline="middle" fill="white" font-family="monospace" font-size="16" text-anchor="middle" x="44" y="16">
uint16_t
</text>
<g transform="translate(102,4)">
<path d="M0,0 a4,4,0,0,0,0,24 l10,0 a4,4,0,0,0,0,-24 z" fill="white" stroke="none"/>
<text dominant-baseline="middle" fill="black" font-family="monospace" font-size="16" text-anchor="middle" x="5" y="12">
z
</text>
</g>
</g>
</g>
<g transform="translate(142,0)">
<path d="M0,0 l-12,16 l12,16 l106,0 l-0,-16 l0,-16 z" fill="black" stroke="none"/>
<text dominant-baseline="middle" fill="white" font-family="monospace" font-size="16" text-anchor="middle" x="29" y="16">
Point
</text>
<g transform="translate(72,4)">
<path d="M0,0 a4,4,0,0,0,0,24 l10,0 a4,4,0,0,0,0,-24 z" fill="white" stroke="none"/>
<text dominant-baseline="middle" fill="black" font-family="monospace" font-size="16" text-anchor="middle" x="5" y="12">
b
</text>
</g>
</g>
</g>
<g fill="cyan" transform="translate(544,0)">
<path d="M0,0 l0,195 l236,0 l12,-13.5 l0,-149.5 l-0,-16 l0,-16 z" fill="black" stroke="none"/>
<path d="M3,3 l0,189 l231.5,0 l10.5,-12 l0,-146.5 l-0,-17.5 l0,-14.5 z" stroke="none"/>
<g fill="red" transform="translate(0,0)">
<path d="M0,0 l0,67 l124,0 l12,-13.5 l0,-21.5 l-12,-16 l12,-16 z" fill="black" stroke="none"/>
<path d="M3,3 l0,61 l119.5,0 l10.5,-12 l0,-18.5 l-12,-17.5 l12,-14.5 z" stroke="none"/>
<g transform="translate(0,0)">
<path d="M0,0 l-12,16 l12,16 l136,0 l-12,-16 l12,-16 z" fill="black" stroke="none"/>
<text dominant-baseline="middle" fill="white" font-family="monospace" font-size="16" text-anchor="middle" x="44" y="16">
uint16_t
</text>
<g transform="translate(102,4)">
<path d="M0,0 a4,4,0,0,0,0,24 l10,0 a4,4,0,0,0,0,-24 z" fill="white" stroke="none"/>
<text dominant-baseline="middle" fill="black" font-family="monospace" font-size="16" text-anchor="middle" x="5" y="12">
x
</text>
</g>
</g>
</g>
<g fill="magenta" transform="translate(0,64)">
<path d="M0,0 l0,67 l124,0 l12,-13.5 l0,-21.5 l-0,-16 l0,-16 z" fill="black" stroke="none"/>
<path d="M3,3 l0,61 l119.5,0 l10.5,-12 l0,-18.5 l-0,-17.5 l0,-14.5 z" stroke="none"/>
<g transform="translate(0,0)">
<path d="M0,0 l-12,16 l12,16 l136,0 l-0,-16 l0,-16 z" fill="black" stroke="none"/>
<text dominant-baseline="middle" fill="white" font-family="monospace" font-size="16" text-anchor="middle" x="44" y="16">
uint16_t
</text>
<g transform="translate(102,4)">
<path d="M0,0 a4,4,0,0,0,0,24 l10,0 a4,4,0,0,0,0,-24 z" fill="white" stroke="none"/>
<text dominant-baseline="middle" fill="black" font-family="monospace" font-size="16" text-anchor="middle" x="5" y="12">
y
</text>
</g>
</g>
</g>
<g fill="green" transform="translate(0,128)">
<path d="M0,0 l0,67 l124,0 l12,-13.5 l0,-21.5 l-0,-16 l0,-16 z" fill="black" stroke="none"/>
<path d="M3,3 l0,61 l119.5,0 l10.5,-12 l0,-18.5 l-0,-17.5 l0,-14.5 z" stroke="none"/>
<g transform="translate(0,0)">
<path d="M0,0 l-12,16 l12,16 l136,0 l-0,-16 l0,-16 z" fill="black" stroke="none"/>
<text dominant-baseline="middle" fill="white" font-family="monospace" font-size="16" text-anchor="middle" x="44" y="16">
uint16_t
</text>
<g transform="translate(102,4)">
<path d="M0,0 a4,4,0,0,0,0,24 l10,0 a4,4,0,0,0,0,-24 z" fill="white" stroke="none"/>
<text dominant-baseline="middle" fill="black" font-family="monospace" font-size="16" text-anchor="middle" x="5" y="12">
z
</text>
</g>
</g>
</g>
<g transform="translate(142,0)">
<path d="M0,0 l-12,16 l12,16 l106,0 l-0,-16 l0,-16 z" fill="black" stroke="none"/>
<text dominant-baseline="middle" fill="white" font-family="monospace" font-size="16" text-anchor="middle" x="29" y="16">
Point
</text>
<g transform="translate(72,4)">
<path d="M0,0 a4,4,0,0,0,0,24 l10,0 a4,4,0,0,0,0,-24 z" fill="white" stroke="none"/>
<text dominant-baseline="middle" fill="black" font-family="monospace" font-size="16" text-anchor="middle" x="5" y="12">
c
</text>
</g>
</g>
</g>
<g transform="translate(822,0)">
<path d="M0,0 l-12,16 l12,16 l142,0 l-12,-16 l12,-16 z" fill="black" stroke="none"/>
<text dominant-baseline="middle" fill="white" font-family="monospace" font-size="16" text-anchor="middle" x="44" y="16">
Triangle
</text>
<g transform="translate(102,4)">
<path d="M0,0 a4,4,0,0,0,0,24 l10,0 a4,4,0,0,0,0,-24 z" fill="white" stroke="none"/>
<text dominant-baseline="middle" fill="black" font-family="monospace" font-size="16" text-anchor="middle" x="5" y="12">
p
</text>
</g>
</g>
</g>
<g fill="magenta" transform="translate(0,192)">
<path d="M0,0 l0,195 l952,0 l12,-13.5 l0,-149.5 l-0,-16 l0,-16 z" fill="black" stroke="none"/>
<path d="M3,3 l0,189 l947.5,0 l10.5,-12 l0,-146.5 l-0,-17.5 l0,-14.5 z" stroke="none"/>
<g fill="green" transform="translate(0,0)">
<path d="M0,0 l0,195 l196,0 l12,-13.5 l0,-149.5 l-0,-16 l0,-16 z" fill="black" stroke="none"/>
<path d="M3,3 l0,189 l191.5,0 l10.5,-12 l0,-146.5 l-0,-17.5 l0,-14.5 z" stroke="none"/>
<g fill="magenta" transform="translate(0,0)">
<path d="M0,0 l0,67 l124,0 l12,-13.5 l0,-21.5 l-12,-16 l12,-16 z" fill="black" stroke="none"/>
<path d="M3,3 l0,61 l119.5,0 l10.5,-12 l0,-18.5 l-12,-17.5 l12,-14.5 z" stroke="none"/>
<g transform="translate(0,0)">
<path d="M0,0 l-12,16 l12,16 l136,0 l-12,-16 l12,-16 z" fill="black" stroke="none"/>
<text dominant-baseline="middle" fill="white" font-family="monospace" font-size="16" text-anchor="middle" x="44" y="16">
uint16_t
</text>
<g transform="translate(102,4)">
<path d="M0,0 a4,4,0,0,0,0,24 l10,0 a4,4,0,0,0,0,-24 z" fill="white" stroke="none"/>
<text dominant-baseline="middle" fill="black" font-family="monospace" font-size="16" text-anchor="middle" x="5" y="12">
x
</text>
</g>
</g>
</g>
<g fill="blue" transform="translate(0,64)">
<path d="M0,0 l0,67 l124,0 l12,-13.5 l0,-21.5 l-0,-16 l0,-16 z" fill="black" stroke="none"/>
<path d="M3,3 l0,61 l119.5,0 l10.5,-12 l0,-18.5 l-0,-17.5 l0,-14.5 z" stroke="none"/>
<g transform="translate(0,0)">
<path d="M0,0 l-12,16 l12,16 l136,0 l-0,-16 l0,-16 z" fill="black" stroke="none"/>
<text dominant-baseline="middle" fill="white" font-family="monospace" font-size="16" text-anchor="middle" x="44" y="16">
uint16_t
</text>
<g transform="translate(102,4)">
<path d="M0,0 a4,4,0,0,0,0,24 l10,0 a4,4,0,0,0,0,-24 z" fill="white" stroke="none"/>
<text dominant-baseline="middle" fill="black" font-family="monospace" font-size="16" text-anchor="middle" x="5" y="12">
y
</text>
</g>
</g>
</g>
<g fill="magenta" transform="translate(0,128)">
<path d="M0,0 l0,67 l124,0 l12,-13.5 l0,-21.5 l-0,-16 l0,-16 z" fill="black" stroke="none"/>
<path d="M3,3 l0,61 l119.5,0 l10.5,-12 l0,-18.5 l-0,-17.5 l0,-14.5 z" stroke="none"/>
<g transform="translate(0,0)">
<path d="M0,0 l-12,16 l12,16 l136,0 l-0,-16 l0,-16 z" fill="black" stroke="none"/>
<text dominant-baseline="middle" fill="white" font-family="monospace" font-size="16" text-anchor="middle" x="44" y="16">
uint16_t
</text>
<g transform="translate(102,4)">
<path d="M0,0 a4,4,0,0,0,0,24 l10,0 a4,4,0,0,0,0,-24 z" fill="white" stroke="none"/>
<text dominant-baseline="middle" fill="black" font-family="monospace" font-size="16" text-anchor="middle" x="5" y="12">
z
</text>
</g>
</g>
</g>
<g transform="translate(142,0)">
<path d="M0,0 l-12,16 l12,16 l66,0 l-0,-16 l0,-16 z" fill="black" stroke="none"/>
<text dominant-baseline="middle" fill="white" font-family="monospace" font-size="16" text-anchor="middle" x="9" y="16">
P
</text>
<g transform="translate(32,4)">
<path d="M0,0 a4,4,0,0,0,0,24 l10,0 a4,4,0,0,0,0,-24 z" fill="white" stroke="none"/>
<text dominant-baseline="middle" fill="black" font-family="monospace" font-size="16" text-anchor="middle" x="5" y="12">
a
</text>
</g>
</g>
</g>
<g fill="blue" transform="translate(232,0)">
<path d="M0,0 l0,195 l196,0 l12,-13.5 l0,-149.5 l-0,-16 l0,-16 z" fill="black" stroke="none"/>
<path d="M3,3 l0,189 l191.5,0 l10.5,-12 l0,-146.5 l-0,-17.5 l0,-14.5 z" stroke="none"/>
<g fill="green" transform="translate(0,0)">
<path d="M0,0 l0,67 l124,0 l12,-13.5 l0,-21.5 l-12,-16 l12,-16 z" fill="black" stroke="none"/>
<path d="M3,3 l0,61 l119.5,0 l10.5,-12 l0,-18.5 l-12,-17.5 l12,-14.5 z" stroke="none"/>
<g transform="translate(0,0)">
<path d="M0,0 l-12,16 l12,16 l136,0 l-12,-16 l12,-16 z" fill="black" stroke="none"/>
<text dominant-baseline="middle" fill="white" font-family="monospace" font-size="16" text-anchor="middle" x="44" y="16">
uint16_t
</text>
<g transform="translate(102,4)">
<path d="M0,0 a4,4,0,0,0,0,24 l10,0 a4,4,0,0,0,0,-24 z" fill="white" stroke="none"/>
<text dominant-baseline="middle" fill="black" font-family="monospace" font-size="16" text-anchor="middle" x="5" y="12">
x
</text>
</g>
</g>
</g>
<g fill="cyan" transform="translate(0,64)">
<path d="M0,0 l0,67 l124,0 l12,-13.5 l0,-21.5 l-0,-16 l0,-16 z" fill="black" stroke="none"/>
<path d="M3,3 l0,61 l119.5,0 l10.5,-12 l0,-18.5 l-0,-17.5 l0,-14.5 z" stroke="none"/>
<g transform="translate(0,0)">
<path d="M0,0 l-12,16 l12,16 l136,0 l-0,-16 l0,-16 z" fill="black" stroke="none"/>
<text dominant-baseline="middle" fill="white" font-family="monospace" font-size="16" text-anchor="middle" x="44" y="16">
uint16_t
</text>
<g transform="translate(102,4)">
<path d="M0,0 a4,4,0,0,0,0,24 l10,0 a4,4,0,0,0,0,-24 z" fill="white" stroke="none"/>
<text dominant-baseline="middle" fill="black" font-family="monospace" font-size="16" text-anchor="middle" x="5" y="12">
y
</text>
</g>
</g>
</g>
<g fill="green" transform="translate(0,128)">
<path d="M0,0 l0,67 l124,0 l12,-13.5 l0,-21.5 l-0,-16 l0,-16 z" fill="black" stroke="none"/>
<path d="M3,3 l0,61 l119.5,0 l10.5,-12 l0,-18.5 l-0,-17.5 l0,-14.5 z" stroke="none"/>
<g transform="translate(0,0)">
<path d="M0,0 l-12,16 l12,16 l136,0 l-0,-16 l0,-16 z" fill="black" stroke="none"/>
<text dominant-baseline="middle" fill="white" font-family="monospace" font-size="16" text-anchor="middle" x="44" y="16">
uint16_t
</text>
<g transform="translate(102,4)">
<path d="M0,0 a4,4,0,0,0,0,24 l10,0 a4,4,0,0,0,0,-24 z" fill="white" stroke="none"/>
<text dominant-baseline="middle" fill="black" font-family="monospace" font-size="16" text-anchor="middle" x="5" y="12">
z
</text>
</g>
</g>
</g>
<g transform="translate(142,0)">
<path d="M0,0 l-12,16 l12,16 l66,0 l-0,-16 l0,-16 z" fill="black" stroke="none"/>
<text dominant-baseline="middle" fill="white" font-family="monospace" font-size="16" text-anchor="middle" x="9" y="16">
P
</text>
<g transform="translate(32,4)">
<path d="M0,0 a4,4,0,0,0,0,24 l10,0 a4,4,0,0,0,0,-24 z" fill="white" stroke="none"/>
<text dominant-baseline="middle" fill="black" font-family="monospace" font-size="16" text-anchor="middle" x="5" y="12">
b
</text>
</g>
</g>
</g>
<g fill="blue" transform="translate(464,0)">
<path d="M0,0 l0,195 l196,0 l12,-13.5 l0,-149.5 l-0,-16 l0,-16 z" fill="black" stroke="none"/>
<path d="M3,3 l0,189 l191.5,0 l10.5,-12 l0,-146.5 l-0,-17.5 l0,-14.5 z" stroke="none"/>
<g fill="cyan" transform="translate(0,0)">
<path d="M0,0 l0,67 l124,0 l12,-13.5 l0,-21.5 l-12,-16 l12,-16 z" fill="black" stroke="none"/>
<path d="M3,3 l0,61 l119.5,0 l10.5,-12 l0,-18.5 l-12,-17.5 l12,-14.5 z" stroke="none"/>
<g transform="translate(0,0)">
<path d="M0,0 l-12,16 l12,16 l136,0 l-12,-16 l12,-16 z" fill="black" stroke="none"/>
<text dominant-baseline="middle" fill="white" font-family="monospace" font-size="16" text-anchor="middle" x="44" y="16">
uint16_t
</text>
<g transform="translate(102,4)">
<path d="M0,0 a4,4,0,0,0,0,24 l10,0 a4,4,0,0,0,0,-24 z" fill="white" stroke="none"/>
<text dominant-baseline="middle" fill="black" font-family="monospace" font-size="16" text-anchor="middle" x="5" y="12">
x
</text>
</g>
</g>
</g>
<g fill="green" transform="translate(0,64)">
<path d="M0,0 l0,67 l124,0 l12,-13.5 l0,-21.5 l-0,-16 l0,-16 z" fill="black" stroke="none"/>
<path d="M3,3 l0,61 l119.5,0 l10.5,-12 l0,-18.5 l-0,-17.5 l0,-14.5 z" stroke="none"/>
<g transform="translate(0,0)">
<path d="M0,0 l-12,16 l12,16 l136,0 l-0,-16 l0,-16 z" fill="black" stroke="none"/>
<text dominant-baseline="middle" fill="white" font-family="monospace" font-size="16" text-anchor="middle" x="44" y="16">
uint16_t
</text>
<g transform="translate(102,4)">
<path d="M0,0 a4,4,0,0,0,0,24 l10,0 a4,4,0,0,0,0,-24 z" fill="white" stroke="none"/>
<text dominant-baseline="middle" fill="black" font-family="monospace" font-size="16" text-anchor="middle" x="5" y="12">
y
</text>
</g>
</g>
</g>
<g fill="cyan" transform="translate(0,128)">
<path d="M0,0 l0,67 l124,0 l12,-13.5 l0,-21.5 l-0,-16 l0,-16 z" fill="black" stroke="none"/>
<path d="M3,3 l0,61 l119.5,0 l10.5,-12 l0,-18.5 l-0,-17.5 l0,-14.5 z" stroke="none"/>
<g transform="translate(0,0)">
<path d="M0,0 l-12,16 l12,16 l136,0 l-0,-16 l0,-16 z" fill="black" stroke="none"/>
<text dominant-baseline="middle" fill="white" font-family="monospace" font-size="16" text-anchor="middle" x="44" y="16">
uint16_t
</text>
<g transform="translate(102,4)">
<path d="M0,0 a4,4,0,0,0,0,24 l10,0 a4,4,0,0,0,0,-24 z" fill="white" stroke="none"/>
<text dominant-baseline="middle" fill="black" font-family="monospace" font-size="16" text-anchor="middle" x="5" y="12">
z
</text>
</g>
</g>
</g>
<g transform="translate(142,0)">
<path d="M0,0 l-12,16 l12,16 l66,0 l-0,-16 l0,-16 z" fill="black" stroke="none"/>
<text dominant-baseline="middle" fill="white" font-family="monospace" font-size="16" text-anchor="middle" x="9" y="16">
P
</text>
<g transform="translate(32,4)">
<path d="M0,0 a4,4,0,0,0,0,24 l10,0 a4,4,0,0,0,0,-24 z" fill="white" stroke="none"/>
<text dominant-baseline="middle" fill="black" font-family="monospace" font-size="16" text-anchor="middle" x="5" y="12">
c
</text>
</g>
</g>
</g>
<g transform="translate(702,0)">
<path d="M0,0 l-12,16 l12,16 l262,0 l-0,-16 l0,-16 z" fill="black" stroke="none"/>
<text dominant-baseline="middle" fill="white" font-family="monospace" font-size="16" text-anchor="middle" x="19" y="16">
Tri
</text>
<g transform="translate(52,4)">
<path d="M0,0 a4,4,0,0,0,0,24 l10,0 a4,4,0,0,0,0,-24 z" fill="white" stroke="none"/>
<text dominant-baseline="middle" fill="black" font-family="monospace" font-size="16" text-anchor="middle" x="5" y="12">
q
</text>
</g>
</g>
</g>
<g fill="blue" transform="translate(0,384)">
<path d="M0,0 l0,195 l952,0 l12,-13.5 l0,-149.5 l-0,-16 l0,-16 z" fill="black" stroke="none"/>
<path d="M3,3 l0,189 l947.5,0 l10.5,-12 l0,-146.5 l-0,-17.5 l0,-14.5 z" stroke="none"/>
<g fill="cyan" transform="translate(0,0)">
<path d="M0,0 l0,195 l236,0 l12,-13.5 l0,-149.5 l-0,-16 l0,-16 z" fill="black" stroke="none"/>
<path d="M3,3 l0,189 l231.5,0 l10.5,-12 l0,-146.5 l-0,-17.5 l0,-14.5 z" stroke="none"/>
<g fill="blue" transform="translate(0,0)">
<path d="M0,0 l0,67 l124,0 l12,-13.5 l0,-21.5 l-12,-16 l12,-16 z" fill="black" stroke="none"/>
<path d="M3,3 l0,61 l119.5,0 l10.5,-12 l0,-18.5 l-12,-17.5 l12,-14.5 z" stroke="none"/>
<g transform="translate(0,0)">
<path d="M0,0 l-12,16 l12,16 l136,0 l-12,-16 l12,-16 z" fill="black" stroke="none"/>
<text dominant-baseline="middle" fill="white" font-family="monospace" font-size="16" text-anchor="middle" x="44" y="16">
uint16_t
</text>
<g transform="translate(102,4)">
<path d="M0,0 a4,4,0,0,0,0,24 l10,0 a4,4,0,0,0,0,-24 z" fill="white" stroke="none"/>
<text dominant-baseline="middle" fill="black" font-family="monospace" font-size="16" text-anchor="middle" x="5" y="12">
x
</text>
</g>
</g>
</g>
<g fill="green" transform="translate(0,64)">
<path d="M0,0 l0,67 l124,0 l12,-13.5 l0,-21.5 l-0,-16 l0,-16 z" fill="black" stroke="none"/>
<path d="M3,3 l0,61 l119.5,0 l10.5,-12 l0,-18.5 l-0,-17.5 l0,-14.5 z" stroke="none"/>
<g transform="translate(0,0)">
<path d="M0,0 l-12,16 l12,16 l136,0 l-0,-16 l0,-16 z" fill="black" stroke="none"/>
<text dominant-baseline="middle" fill="white" font-family="monospace" font-size="16" text-anchor="middle" x="44" y="16">
uint16_t
</text>
<g transform="translate(102,4)">
<path d="M0,0 a4,4,0,0,0,0,24 l10,0 a4,4,0,0,0,0,-24 z" fill="white" stroke="none"/>
<text dominant-baseline="middle" fill="black" font-family="monospace" font-size="16" text-anchor="middle" x="5" y="12">
y
</text>
</g>
</g>
</g>
<g fill="blue" transform="translate(0,128)">
<path d="M0,0 l0,67 l124,0 l12,-13.5 l0,-21.5 l-0,-16 l0,-16 z" fill="black" stroke="none"/>
<path d="M3,3 l0,61 l119.5,0 l10.5,-12 l0,-18.5 l-0,-17.5 l0,-14.5 z" stroke="none"/>
<g transform="translate(0,0)">
<path d="M0,0 l-12,16 l12,16 l136,0 l-0,-16 l0,-16 z" fill="black" stroke="none"/>
<text dominant-baseline="middle" fill="white" font-family="monospace" font-size="16" text-anchor="middle" x="44" y="16">
uint16_t
</text>
<g transform="translate(102,4)">
<path d="M0,0 a4,4,0,0,0,0,24 l10,0 a4,4,0,0,0,0,-24 z" fill="white" stroke="none"/>
<text dominant-baseline="middle" fill="black" font-family="monospace" font-size="16" text-anchor="middle" x="5" y="12">
z
</text>
</g>
</g>
</g>
<g transform="translate(142,0)">
<path d="M0,0 l-12,16 l12,16 l106,0 l-0,-16 l0,-16 z" fill="black" stroke="none"/>
<text dominant-baseline="middle" fill="white" font-family="monospace" font-size="16" text-anchor="middle" x="29" y="16">
Point
</text>
<g transform="translate(72,4)">
<path d="M0,0 a4,4,0,0,0,0,24 l10,0 a4,4,0,0,0,0,-24 z" fill="white" stroke="none"/>
<text dominant-baseline="middle" fill="black" font-family="monospace" font-size="16" text-anchor="middle" x="5" y="12">
a
</text>
</g>
</g>
</g>
<g fill="green" transform="translate(272,0)">
<path d="M0,0 l0,195 l236,0 l12,-13.5 l0,-149.5 l-0,-16 l0,-16 z" fill="black" stroke="none"/>
<path d="M3,3 l0,189 l231.5,0 l10.5,-12 l0,-146.5 l-0,-17.5 l0,-14.5 z" stroke="none"/>
<g fill="magenta" transform="translate(0,0)">
<path d="M0,0 l0,67 l124,0 l12,-13.5 l0,-21.5 l-12,-16 l12,-16 z" fill="black" stroke="none"/>
<path d="M3,3 l0,61 l119.5,0 l10.5,-12 l0,-18.5 l-12,-17.5 l12,-14.5 z" stroke="none"/>
<g transform="translate(0,0)">
<path d="M0,0 l-12,16 l12,16 l136,0 l-12,-16 l12,-16 z" fill="black" stroke="none"/>
<text dominant-baseline="middle" fill="white" font-family="monospace" font-size="16" text-anchor="middle" x="44" y="16">
uint16_t
</text>
<g transform="translate(102,4)">
<path d="M0,0 a4,4,0,0,0,0,24 l10,0 a4,4,0,0,0,0,-24 z" fill="white" stroke="none"/>
<text dominant-baseline="middle" fill="black" font-family="monospace" font-size="16" text-anchor="middle" x="5" y="12">
x
</text>
</g>
</g>
</g>
<g fill="cyan" transform="translate(0,64)">
<path d="M0,0 l0,67 l124,0 l12,-13.5 l0,-21.5 l-0,-16 l0,-16 z" fill="black" stroke="none"/>
<path d="M3,3 l0,61 l119.5,0 l10.5,-12 l0,-18.5 l-0,-17.5 l0,-14.5 z" stroke="none"/>
<g transform="translate(0,0)">
<path d="M0,0 l-12,16 l12,16 l136,0 l-0,-16 l0,-16 z" fill="black" stroke="none"/>
<text dominant-baseline="middle" fill="white" font-family="monospace" font-size="16" text-anchor="middle" x="44" y="16">
uint16_t
</text>
<g transform="translate(102,4)">
<path d="M0,0 a4,4,0,0,0,0,24 l10,0 a4,4,0,0,0,0,-24 z" fill="white" stroke="none"/>
<text dominant-baseline="middle" fill="black" font-family="monospace" font-size="16" text-anchor="middle" x="5" y="12">
y
</text>
</g>
</g>
</g>
<g fill="magenta" transform="translate(0,128)">
<path d="M0,0 l0,67 l124,0 l12,-13.5 l0,-21.5 l-0,-16 l0,-16 z" fill="black" stroke="none"/>
<path d="M3,3 l0,61 l119.5,0 l10.5,-12 l0,-18.5 l-0,-17.5 l0,-14.5 z" stroke="none"/>
<g transform="translate(0,0)">
<path d="M0,0 l-12,16 l12,16 l136,0 l-0,-16 l0,-16 z" fill="black" stroke="none"/>
<text dominant-baseline="middle" fill="white" font-family="monospace" font-size="16" text-anchor="middle" x="44" y="16">
uint16_t
</text>
<g transform="translate(102,4)">
<path d="M0,0 a4,4,0,0,0,0,24 l10,0 a4,4,0,0,0,0,-24 z" fill="white" stroke="none"/>
<text dominant-baseline="middle" fill="black" font-family="monospace" font-size="16" text-anchor="middle" x="5" y="12">
z
</text>
</g>
</g>
</g>
<g transform="translate(142,0)">
<path d="M0,0 l-12,16 l12,16 l106,0 l-0,-16 l0,-16 z" fill="black" stroke="none"/>
<text dominant-baseline="middle" fill="white" font-family="monospace" font-size="16" text-anchor="middle" x="29" y="16">
Point
</text>
<g transform="translate(72,4)">
<path d="M0,0 a4,4,0,0,0,0,24 l10,0 a4,4,0,0,0,0,-24 z" fill="white" stroke="none"/>
<text dominant-baseline="middle" fill="black" font-family="monospace" font-size="16" text-anchor="middle" x="5" y="12">
b
</text>
</g>
</g>
</g>
<g fill="cyan" transform="translate(544,0)">
<path d="M0,0 l0,195 l236,0 l12,-13.5 l0,-149.5 l-0,-16 l0,-16 z" fill="black" stroke="none"/>
<path d="M3,3 l0,189 l231.5,0 l10.5,-12 l0,-146.5 l-0,-17.5 l0,-14.5 z" stroke="none"/>
<g fill="green" transform="translate(0,0)">
<path d="M0,0 l0,67 l124,0 l12,-13.5 l0,-21.5 l-12,-16 l12,-16 z" fill="black" stroke="none"/>
<path d="M3,3 l0,61 l119.5,0 l10.5,-12 l0,-18.5 l-12,-17.5 l12,-14.5 z" stroke="none"/>
<g transform="translate(0,0)">
<path d="M0,0 l-12,16 l12,16 l136,0 l-12,-16 l12,-16 z" fill="black" stroke="none"/>
<text dominant-baseline="middle" fill="white" font-family="monospace" font-size="16" text-anchor="middle" x="44" y="16">
uint16_t
</text>
<g transform="translate(102,4)">
<path d="M0,0 a4,4,0,0,0,0,24 l10,0 a4,4,0,0,0,0,-24 z" fill="white" stroke="none"/>
<text dominant-baseline="middle" fill="black" font-family="monospace" font-size="16" text-anchor="middle" x="5" y="12">
x
</text>
</g>
</g>
</g>
<g fill="magenta" transform="translate(0,64)">
<path d="M0,0 l0,67 l124,0 l12,-13.5 l0,-21.5 l-0,-16 l0,-16 z" fill="black" stroke="none"/>
<path d="M3,3 l0,61 l119.5,0 l10.5,-12 l0,-18.5 l-0,-17.5 l0,-14.5 z" stroke="none"/>
<g transform="translate(0,0)">
<path d="M0,0 l-12,16 l12,16 l136,0 l-0,-16 l0,-16 z" fill="black" stroke="none"/>
<text dominant-baseline="middle" fill="white" font-family="monospace" font-size="16" text-anchor="middle" x="44" y="16">
uint16_t
</text>
<g transform="translate(102,4)">
<path d="M0,0 a4,4,0,0,0,0,24 l10,0 a4,4,0,0,0,0,-24 z" fill="white" stroke="none"/>
<text dominant-baseline="middle" fill="black" font-family="monospace" font-size="16" text-anchor="middle" x="5" y="12">
y
</text>
</g>
</g>
</g>
<g fill="green" transform="translate(0,128)">
<path d="M0,0 l0,67 l124,0 l12,-13.5 l0,-21.5 l-0,-16 l0,-16 z" fill="black" stroke="none"/>
<path d="M3,3 l0,61 l119.5,0 l10.5,-12 l0,-18.5 l-0,-17.5 l0,-14.5 z" stroke="none"/>
<g transform="translate(0,0)">
<path d="M0,0 l-12,16 l12,16 l136,0 l-0,-16 l0,-16 z" fill="black" stroke="none"/>
<text dominant-baseline="middle" fill="white" font-family="monospace" font-size="16" text-anchor="middle" x="44" y="16">
uint16_t
</text>
<g transform="translate(102,4)">
<path d="M0,0 a4,4,0,0,0,0,24 l10,0 a4,4,0,0,0,0,-24 z" fill="white" stroke="none"/>
<text dominant-baseline="middle" fill="black" font-family="monospace" font-size="16" text-anchor="middle" x="5" y="12">
z
</text>
</g>
</g>
</g>
<g transform="translate(142,0)">
<path d="M0,0 l-12,16 l12,16 l106,0 l-0,-16 l0,-16 z" fill="black" stroke="none"/>
<text dominant-baseline="middle" fill="white" font-family="monospace" font-size="16" text-anchor="middle" x="29" y="16">
Point
</text>
<g transform="translate(72,4)">
<path d="M0,0 a4,4,0,0,0,0,24 l10,0 a4,4,0,0,0,0,-24 z" fill="white" stroke="none"/>
<text dominant-baseline="middle" fill="black" font-family="monospace" font-size="16" text-anchor="middle" x="5" y="12">
c
</text>
</g>
</g>
</g>
<g transform="translate(822,0)">
<path d="M0,0 l-12,16 l12,16 l142,0 l-0,-16 l0,-16 z" fill="black" stroke="none"/>
<text dominant-baseline="middle" fill="white" font-family="monospace" font-size="16" text-anchor="middle" x="44" y="16">
Triangle
</text>
<g transform="translate(102,4)">
<path d="M0,0 a4,4,0,0,0,0,24 l10,0 a4,4,0,0,0,0,-24 z" fill="white" stroke="none"/>
<text dominant-baseline="middle" fill="black" font-family="monospace" font-size="16" text-anchor="middle" x="5" y="12">
r
</text>
</g>
</g>
</g>
<g fill="magenta" transform="translate(0,576)">
<path d="M0,0 l0,195 l952,0 l12,-13.5 l0,-149.5 l-0,-16 l0,-16 z" fill="black" stroke="none"/>
<path d="M3,3 l0,189 l947.5,0 l10.5,-12 l0,-146.5 l-0,-17.5 l0,-14.5 z" stroke="none"/>
<g fill="green" transform="translate(0,0)">
<path d="M0,0 l0,195 l196,0 l12,-13.5 l0,-149.5 l-0,-16 l0,-16 z" fill="black" stroke="none"/>
<path d="M3,3 l0,189 l191.5,0 l10.5,-12 l0,-146.5 l-0,-17.5 l0,-14.5 z" stroke="none"/>
<g fill="magenta" transform="translate(0,0)">
<path d="M0,0 l0,67 l124,0 l12,-13.5 l0,-21.5 l-12,-16 l12,-16 z" fill="black" stroke="none"/>
<path d="M3,3 l0,61 l119.5,0 l10.5,-12 l0,-18.5 l-12,-17.5 l12,-14.5 z" stroke="none"/>
<g transform="translate(0,0)">
<path d="M0,0 l-12,16 l12,16 l136,0 l-12,-16 l12,-16 z" fill="black" stroke="none"/>
<text dominant-baseline="middle" fill="white" font-family="monospace" font-size="16" text-anchor="middle" x="44" y="16">
uint16_t
</text>
<g transform="translate(102,4)">
<path d="M0,0 a4,4,0,0,0,0,24 l10,0 a4,4,0,0,0,0,-24 z" fill="white" stroke="none"/>
<text dominant-baseline="middle" fill="black" font-family="monospace" font-size="16" text-anchor="middle" x="5" y="12">
x
</text>
</g>
</g>
</g>
<g fill="blue" transform="translate(0,64)">
<path d="M0,0 l0,67 l124,0 l12,-13.5 l0,-21.5 l-0,-16 l0,-16 z" fill="black" stroke="none"/>
<path d="M3,3 l0,61 l119.5,0 l10.5,-12 l0,-18.5 l-0,-17.5 l0,-14.5 z" stroke="none"/>
<g transform="translate(0,0)">
<path d="M0,0 l-12,16 l12,16 l136,0 l-0,-16 l0,-16 z" fill="black" stroke="none"/>
<text dominant-baseline="middle" fill="white" font-family="monospace" font-size="16" text-anchor="middle" x="44" y="16">
uint16_t
</text>
<g transform="translate(102,4)">
<path d="M0,0 a4,4,0,0,0,0,24 l10,0 a4,4,0,0,0,0,-24 z" fill="white" stroke="none"/>
<text dominant-baseline="middle" fill="black" font-family="monospace" font-size="16" text-anchor="middle" x="5" y="12">
y
</text>
</g>
</g>
</g>
<g fill="red" transform="translate(0,128)">
<path d="M0,0 l0,67 l124,0 l12,-13.5 l0,-21.5 l-0,-16 l0,-16 z" fill="black" stroke="none"/>
<path d="M3,3 l0,61 l119.5,0 l10.5,-12 l0,-18.5 l-0,-17.5 l0,-14.5 z" stroke="none"/>
<g transform="translate(0,0)">
<path d="M0,0 l-12,16 l12,16 l136,0 l-0,-16 l0,-16 z" fill="black" stroke="none"/>
<text dominant-baseline="middle" fill="white" font-family="monospace" font-size="16" text-anchor="middle" x="44" y="16">
uint16_t
</text>
<g transform="translate(102,4)">
<path d="M0,0 a4,4,0,0,0,0,24 l10,0 a4,4,0,0,0,0,-24 z" fill="white" stroke="none"/>
<text dominant-baseline="middle" fill="black" font-family="monospace" font-size="16" text-anchor="middle" x="5" y="12">
z
</text>
</g>
</g>
</g>
<g transform="translate(142,0)">
<path d="M0,0 l-12,16 l12,16 l66,0 l-0,-16 l0,-16 z" fill="black" stroke="none"/>
<text dominant-baseline="middle" fill="white" font-family="monospace" font-size="16" text-anchor="middle" x="9" y="16">
P
</text>
<g transform="translate(32,4)">
<path d="M0,0 a4,4,0,0,0,0,24 l10,0 a4,4,0,0,0,0,-24 z" fill="white" stroke="none"/>
<text dominant-baseline="middle" fill="black" font-family="monospace" font-size="16" text-anchor="middle" x="5" y="12">
a
</text>
</g>
</g>
</g>
<g fill="blue" transform="translate(232,0)">
<path d="M0,0 l0,195 l196,0 l12,-13.5 l0,-149.5 l-0,-16 l0,-16 z" fill="black" stroke="none"/>
<path d="M3,3 l0,189 l191.5,0 l10.5,-12 l0,-146.5 l-0,-17.5 l0,-14.5 z" stroke="none"/>
<g fill="green" transform="translate(0,0)">
<path d="M0,0 l0,67 l124,0 l12,-13.5 l0,-21.5 l-12,-16 l12,-16 z" fill="black" stroke="none"/>
<path d="M3,3 l0,61 l119.5,0 l10.5,-12 l0,-18.5 l-12,-17.5 l12,-14.5 z" stroke="none"/>
<g transform="translate(0,0)">
<path d="M0,0 l-12,16 l12,16 l136,0 l-12,-16 l12,-16 z" fill="black" stroke="none"/>
<text dominant-baseline="middle" fill="white" font-family="monospace" font-size="16" text-anchor="middle" x="44" y="16">
uint16_t
</text>
<g transform="translate(102,4)">
<path d="M0,0 a4,4,0,0,0,0,24 l10,0 a4,4,0,0,0,0,-24 z" fill="white" stroke="none"/>
<text dominant-baseline="middle" fill="black" font-family="monospace" font-size="16" text-anchor="middle" x="5" y="12">
x
</text>
</g>
</g>
</g>
<g fill="cyan" transform="translate(0,64)">
<path d="M0,0 l0,67 l124,0 l12,-13.5 l0,-21.5 l-0,-16 l0,-16 z" fill="black" stroke="none"/>
<path d="M3,3 l0,61 l119.5,0 l10.5,-12 l0,-18.5 l-0,-17.5 l0,-14.5 z" stroke="none"/>
<g transform="translate(0,0)">
<path d="M0,0 l-12,16 l12,16 l136,0 l-0,-16 l0,-16 z" fill="black" stroke="none"/>
<text dominant-baseline="middle" fill="white" font-family="monospace" font-size="16" text-anchor="middle" x="44" y="16">
uint16_t
</text>
<g transform="translate(102,4)">
<path d="M0,0 a4,4,0,0,0,0,24 l10,0 a4,4,0,0,0,0,-24 z" fill="white" stroke="none"/>
<text dominant-baseline="middle" fill="black" font-family="monospace" font-size="16" text-anchor="middle" x="5" y="12">
y
</text>
</g>
</g>
</g>
<g fill="red" transform="translate(0,128)">
<path d="M0,0 l0,67 l124,0 l12,-13.5 l0,-21.5 l-0,-16 l0,-16 z" fill="black" stroke="none"/>
<path d="M3,3 l0,61 l119.5,0 l10.5,-12 l0,-18.5 l-0,-17.5 l0,-14.5 z" stroke="none"/>
<g transform="translate(0,0)">
<path d="M0,0 l-12,16 l12,16 l136,0 l-0,-16 l0,-16 z" fill="black" stroke="none"/>
<text dominant-baseline="middle" fill="white" font-family="monospace" font-size="16" text-anchor="middle" x="44" y="16">
uint16_t
</text>
<g transform="translate(102,4)">
<path d="M0,0 a4,4,0,0,0,0,24 l10,0 a4,4,0,0,0,0,-24 z" fill="white" stroke="none"/>
<text dominant-baseline="middle" fill="black" font-family="monospace" font-size="16" text-anchor="middle" x="5" y="12">
z
</text>
</g>
</g>
</g>
<g transform="translate(142,0)">
<path d="M0,0 l-12,16 l12,16 l66,0 l-0,-16 l0,-16 z" fill="black" stroke="none"/>
<text dominant-baseline="middle" fill="white" font-family="monospace" font-size="16" text-anchor="middle" x="9" y="16">
P
</text>
<g transform="translate(32,4)">
<path d="M0,0 a4,4,0,0,0,0,24 l10,0 a4,4,0,0,0,0,-24 z" fill="white" stroke="none"/>
<text dominant-baseline="middle" fill="black" font-family="monospace" font-size="16" text-anchor="middle" x="5" y="12">
b
</text>
</g>
</g>
</g>
<g fill="blue" transform="translate(464,0)">
<path d="M0,0 l0,195 l196,0 l12,-13.5 l0,-149.5 l-0,-16 l0,-16 z" fill="black" stroke="none"/>
<path d="M3,3 l0,189 l191.5,0 l10.5,-12 l0,-146.5 l-0,-17.5 l0,-14.5 z" stroke="none"/>
<g fill="cyan" transform="translate(0,0)">
<path d="M0,0 l0,67 l124,0 l12,-13.5 l0,-21.5 l-12,-16 l12,-16 z" fill="black" stroke="none"/>
<path d="M3,3 l0,61 l119.5,0 l10.5,-12 l0,-18.5 l-12,-17.5 l12,-14.5 z" stroke="none"/>
<g transform="translate(0,0)">
<path d="M0,0 l-12,16 l12,16 l136,0 l-12,-16 l12,-16 z" fill="black" stroke="none"/>
<text dominant-baseline="middle" fill="white" font-family="monospace" font-size="16" text-anchor="middle" x="44" y="16">
uint16_t
</text>
<g transform="translate(102,4)">
<path d="M0,0 a4,4,0,0,0,0,24 l10,0 a4,4,0,0,0,0,-24 z" fill="white" stroke="none"/>
<text dominant-baseline="middle" fill="black" font-family="monospace" font-size="16" text-anchor="middle" x="5" y="12">
x
</text>
</g>
</g>
</g>
<g fill="green" transform="translate(0,64)">
<path d="M0,0 l0,67 l124,0 l12,-13.5 l0,-21.5 l-0,-16 l0,-16 z" fill="black" stroke="none"/>
<path d="M3,3 l0,61 l119.5,0 l10.5,-12 l0,-18.5 l-0,-17.5 l0,-14.5 z" stroke="none"/>
<g transform="translate(0,0)">
<path d="M0,0 l-12,16 l12,16 l136,0 l-0,-16 l0,-16 z" fill="black" stroke="none"/>
<text dominant-baseline="middle" fill="white" font-family="monospace" font-size="16" text-anchor="middle" x="44" y="16">
uint16_t
</text>
<g transform="translate(102,4)">
<path d="M0,0 a4,4,0,0,0,0,24 l10,0 a4,4,0,0,0,0,-24 z" fill="white" stroke="none"/>
<text dominant-baseline="middle" fill="black" font-family="monospace" font-size="16" text-anchor="middle" x="5" y="12">
y
</text>
</g>
</g>
</g>
<g fill="red" transform="translate(0,128)">
<path d="M0,0 l0,67 l124,0 l12,-13.5 l0,-21.5 l-0,-16 l0,-16 z" fill="black" stroke="none"/>
<path d="M3,3 l0,61 l119.5,0 l10.5,-12 l0,-18.5 l-0,-17.5 l0,-14.5 z" stroke="none"/>
<g transform="translate(0,0)">
<path d="M0,0 l-12,16 l12,16 l136,0 l-0,-16 l0,-16 z" fill="black" stroke="none"/>
<text dominant-baseline="middle" fill="white" font-family="monospace" font-size="16" text-anchor="middle" x="44" y="16">
uint16_t
</text>
<g transform="translate(102,4)">
<path d="M0,0 a4,4,0,0,0,0,24 l10,0 a4,4,0,0,0,0,-24 z" fill="white" stroke="none"/>
<text dominant-baseline="middle" fill="black" font-family="monospace" font-size="16" text-anchor="middle" x="5" y="12">
z
</text>
</g>
</g>
</g>
<g transform="translate(142,0)">
<path d="M0,0 l-12,16 l12,16 l66,0 l-0,-16 l0,-16 z" fill="black" stroke="none"/>
<text dominant-baseline="middle" fill="white" font-family="monospace" font-size="16" text-anchor="middle" x="9" y="16">
P
</text>
<g transform="translate(32,4)">
<path d="M0,0 a4,4,0,0,0,0,24 l10,0 a4,4,0,0,0,0,-24 z" fill="white" stroke="none"/>
<text dominant-baseline="middle" fill="black" font-family="monospace" font-size="16" text-anchor="middle" x="5" y="12">
c
</text>
</g>
</g>
</g>
<g transform="translate(702,0)">
<path d="M0,0 l-12,16 l12,16 l262,0 l-0,-16 l0,-16 z" fill="black" stroke="none"/>
<text dominant-baseline="middle" fill="white" font-family="monospace" font-size="16" text-anchor="middle" x="19" y="16">
Tri
</text>
<g transform="translate(52,4)">
<path d="M0,0 a4,4,0,0,0,0,24 l10,0 a4,4,0,0,0,0,-24 z" fill="white" stroke="none"/>
<text dominant-baseline="middle" fill="black" font-family="monospace" font-size="16" text-anchor="middle" x="5" y="12">
s
</text>
</g>
</g>
</g>
<g transform="translate(970,0)">
<path d="M0,0 l-12,16 l12,16 l64,0 l-0,-16 l0,-16 z" fill="black" stroke="none"/>
<text dominant-baseline="middle" fill="white" font-family="monospace" font-size="16" text-anchor="middle" x="29" y="16">
Tetra
</text>
</g>
</g>
</svg>