<svg viewBox="0 0 1100 800" xmlns="http://www.w3.org/2000/svg">
<g fill="#777" transform="translate(16,16)">
<path d="M0,0 l0,579 l858,0 l12,-13.5 l0,-533.5 l-0,-16 l0,-16 z" fill="black" stroke="none"/>
<path d="M3,3 l0,573 l853.5,0 l10.5,-12 l0,-530.5 l-0,-17.5 l0,-14.5 z" stroke="none"/>
<g fill="#BBB" transform="translate(0,0)">
<path d="M0,0 l0,579 l344,0 l12,-13.5 l0,-533.5 l-0,-16 l0,-16 z" fill="black" stroke="none"/>
<path d="M3,3 l0,573 l339.5,0 l10.5,-12 l0,-530.5 l-0,-17.5 l0,-14.5 z" stroke="none"/>
<g fill="#555" transform="translate(0,0)">
<path d="M0,0 l0,195 l242,0 l12,-13.5 l0,-149.5 l-12,-16 l12,-16 z" fill="black" stroke="none"/>
<path d="M3,3 l0,189 l237.5,0 l10.5,-12 l0,-146.5 l-12,-17.5 l12,-14.5 z" stroke="none"/>
<g fill="#DDD" transform="translate(0,0)">
<path d="M0,0 l0,67 l124,0 l12,-13.5 l0,-21.5 l-12,-16 l12,-16 z" fill="black" stroke="none"/>
<path d="M3,3 l0,61 l119.5,0 l10.5,-12 l0,-18.5 l-12,-17.5 l12,-14.5 z" stroke="none"/>
<g transform="translate(0,0)">
<path d="M0,0 l-12,16 l12,16 l136,0 l-12,-16 l12,-16 z" fill="black" stroke="none"/>
<text dominant-baseline="middle" fill="white" font-family="monospace" font-size="16" text-anchor="middle" x="44" y="16">
uint16_t
</text>
<g transform="translate(102,4)">
<path d="M0,0 a4,4,0,0,0,0,24 l10,0 a4,4,0,0,0,0,-24 z" fill="white" stroke="none"/>
<text dominant-baseline="middle" fill="black" font-family="monospace" font-size="16" text-anchor="middle" x="5" y="12">
x
</text>
</g>
</g>
</g>
<g fill="#BBB" transform="translate(0,64)">
<path d="M0,0 l0,67 l124,0 l12,-13.5 l0,-21.5 l-0,-16 l0,-16 z" fill="black" stroke="none"/>
<path d="M3,3 l0,61 l119.5,0 l10.5,-12 l0,-18.5 l-0,-17.5 l0,-14.5 z" stroke="none"/>
<g transform="translate(0,0)">
<path d="M0,0 l-12,16 l12,16 l136,0 l-0,-16 l0,-16 z" fill="black" stroke="none"/>
<text dominant-baseline="middle" fill="white" font-family="monospace" font-size="16" text-anchor="middle" x="44" y="16">
uint16_t
</text>
<g transform="translate(102,4)">
<path d="M0,0 a4,4,0,0,0,0,24 l10,0 a4,4,0,0,0,0,-24 z" fill="white" stroke="none"/>
<text dominant-baseline="middle" fill="black" font-family="monospace" font-size="16" text-anchor="middle" x="5" y="12">
y
</text>
</g>
</g>
</g>
<g fill="#999" transform="translate(0,128)">
<path d="M0,0 l0,67 l124,0 l12,-13.5 l0,-21.5 l-0,-16 l0,-16 z" fill="black" stroke="none"/>
<path d="M3,3 l0,61 l119.5,0 l10.5,-12 l0,-18.5 l-0,-17.5 l0,-14.5 z" stroke="none"/>
<g transform="translate(0,0)">
<path d="M0,0 l-12,16 l12,16 l136,0 l-0,-16 l0,-16 z" fill="black" stroke="none"/>
<text dominant-baseline="middle" fill="white" font-family="monospace" font-size="16" text-anchor="middle" x="44" y="16">
uint16_t
</text>
<g transform="translate(102,4)">
<path d="M0,0 a4,4,0,0,0,0,24 l10,0 a4,4,0,0,0,0,-24 z" fill="white" stroke="none"/>
<text dominant-baseline="middle" fill="black" font-family="monospace" font-size="16" text-anchor="middle" x="5" y="12">
z
</text>
</g>
</g>
</g>
<g transform="translate(142,0)">
<path d="M0,0 l-12,16 l12,16 l112,0 l-12,-16 l12,-16 z" fill="black" stroke="none"/>
<text dominant-baseline="middle" fill="white" font-family="monospace" font-size="16" text-anchor="middle" x="29" y="16">
Point
</text>
<g transform="translate(72,4)">
<path d="M0,0 a4,4,0,0,0,0,24 l10,0 a4,4,0,0,0,0,-24 z" fill="white" stroke="none"/>
<text dominant-baseline="middle" fill="black" font-family="monospace" font-size="16" text-anchor="middle" x="5" y="12">
a
</text>
</g>
</g>
</g>
<g fill="#777" transform="translate(0,192)">
<path d="M0,0 l0,195 l242,0 l12,-13.5 l0,-149.5 l-0,-16 l0,-16 z" fill="black" stroke="none"/>
<path d="M3,3 l0,189 l237.5,0 l10.5,-12 l0,-146.5 l-0,-17.5 l0,-14.5 z" stroke="none"/>
<g fill="#BBB" transform="translate(0,0)">
<path d="M0,0 l0,67 l124,0 l12,-13.5 l0,-21.5 l-12,-16 l12,-16 z" fill="black" stroke="none"/>
<path d="M3,3 l0,61 l119.5,0 l10.5,-12 l0,-18.5 l-12,-17.5 l12,-14.5 z" stroke="none"/>
<g transform="translate(0,0)">
<path d="M0,0 l-12,16 l12,16 l136,0 l-12,-16 l12,-16 z" fill="black" stroke="none"/>
<text dominant-baseline="middle" fill="white" font-family="monospace" font-size="16" text-anchor="middle" x="44" y="16">
uint16_t
</text>
<g transform="translate(102,4)">
<path d="M0,0 a4,4,0,0,0,0,24 l10,0 a4,4,0,0,0,0,-24 z" fill="white" stroke="none"/>
<text dominant-baseline="middle" fill="black" font-family="monospace" font-size="16" text-anchor="middle" x="5" y="12">
x
</text>
</g>
</g>
</g>
<g fill="#999" transform="translate(0,64)">
<path d="M0,0 l0,67 l124,0 l12,-13.5 l0,-21.5 l-0,-16 l0,-16 z" fill="black" stroke="none"/>
<path d="M3,3 l0,61 l119.5,0 l10.5,-12 l0,-18.5 l-0,-17.5 l0,-14.5 z" stroke="none"/>
<g transform="translate(0,0)">
<path d="M0,0 l-12,16 l12,16 l136,0 l-0,-16 l0,-16 z" fill="black" stroke="none"/>
<text dominant-baseline="middle" fill="white" font-family="monospace" font-size="16" text-anchor="middle" x="44" y="16">
uint16_t
</text>
<g transform="translate(102,4)">
<path d="M0,0 a4,4,0,0,0,0,24 l10,0 a4,4,0,0,0,0,-24 z" fill="white" stroke="none"/>
<text dominant-baseline="middle" fill="black" font-family="monospace" font-size="16" text-anchor="middle" x="5" y="12">
y
</text>
</g>
</g>
</g>
<g fill="#BBB" transform="translate(0,128)">
<path d="M0,0 l0,67 l124,0 l12,-13.5 l0,-21.5 l-0,-16 l0,-16 z" fill="black" stroke="none"/>
<path d="M3,3 l0,61 l119.5,0 l10.5,-12 l0,-18.5 l-0,-17.5 l0,-14.5 z" stroke="none"/>
<g transform="translate(0,0)">
<path d="M0,0 l-12,16 l12,16 l136,0 l-0,-16 l0,-16 z" fill="black" stroke="none"/>
<text dominant-baseline="middle" fill="white" font-family="monospace" font-size="16" text-anchor="middle" x="44" y="16">
uint16_t
</text>
<g transform="translate(102,4)">
<path d="M0,0 a4,4,0,0,0,0,24 l10,0 a4,4,0,0,0,0,-24 z" fill="white" stroke="none"/>
<text dominant-baseline="middle" fill="black" font-family="monospace" font-size="16" text-anchor="middle" x="5" y="12">
z
</text>
</g>
</g>
</g>
<g transform="translate(142,0)">
<path d="M0,0 l-12,16 l12,16 l112,0 l-0,-16 l0,-16 z" fill="black" stroke="none"/>
<text dominant-baseline="middle" fill="white" font-family="monospace" font-size="16" text-anchor="middle" x="29" y="16">
Point
</text>
<g transform="translate(72,4)">
<path d="M0,0 a4,4,0,0,0,0,24 l10,0 a4,4,0,0,0,0,-24 z" fill="white" stroke="none"/>
<text dominant-baseline="middle" fill="black" font-family="monospace" font-size="16" text-anchor="middle" x="5" y="12">
b
</text>
</g>
</g>
</g>
<g fill="#999" transform="translate(0,384)">
<path d="M0,0 l0,195 l242,0 l12,-13.5 l0,-149.5 l-0,-16 l0,-16 z" fill="black" stroke="none"/>
<path d="M3,3 l0,189 l237.5,0 l10.5,-12 l0,-146.5 l-0,-17.5 l0,-14.5 z" stroke="none"/>
<g fill="#777" transform="translate(0,0)">
<path d="M0,0 l0,67 l124,0 l12,-13.5 l0,-21.5 l-12,-16 l12,-16 z" fill="black" stroke="none"/>
<path d="M3,3 l0,61 l119.5,0 l10.5,-12 l0,-18.5 l-12,-17.5 l12,-14.5 z" stroke="none"/>
<g transform="translate(0,0)">
<path d="M0,0 l-12,16 l12,16 l136,0 l-12,-16 l12,-16 z" fill="black" stroke="none"/>
<text dominant-baseline="middle" fill="white" font-family="monospace" font-size="16" text-anchor="middle" x="44" y="16">
uint16_t
</text>
<g transform="translate(102,4)">
<path d="M0,0 a4,4,0,0,0,0,24 l10,0 a4,4,0,0,0,0,-24 z" fill="white" stroke="none"/>
<text dominant-baseline="middle" fill="black" font-family="monospace" font-size="16" text-anchor="middle" x="5" y="12">
x
</text>
</g>
</g>
</g>
<g fill="#BBB" transform="translate(0,64)">
<path d="M0,0 l0,67 l124,0 l12,-13.5 l0,-21.5 l-0,-16 l0,-16 z" fill="black" stroke="none"/>
<path d="M3,3 l0,61 l119.5,0 l10.5,-12 l0,-18.5 l-0,-17.5 l0,-14.5 z" stroke="none"/>
<g transform="translate(0,0)">
<path d="M0,0 l-12,16 l12,16 l136,0 l-0,-16 l0,-16 z" fill="black" stroke="none"/>
<text dominant-baseline="middle" fill="white" font-family="monospace" font-size="16" text-anchor="middle" x="44" y="16">
uint16_t
</text>
<g transform="translate(102,4)">
<path d="M0,0 a4,4,0,0,0,0,24 l10,0 a4,4,0,0,0,0,-24 z" fill="white" stroke="none"/>
<text dominant-baseline="middle" fill="black" font-family="monospace" font-size="16" text-anchor="middle" x="5" y="12">
y
</text>
</g>
</g>
</g>
<g fill="#DDD" transform="translate(0,128)">
<path d="M0,0 l0,67 l124,0 l12,-13.5 l0,-21.5 l-0,-16 l0,-16 z" fill="black" stroke="none"/>
<path d="M3,3 l0,61 l119.5,0 l10.5,-12 l0,-18.5 l-0,-17.5 l0,-14.5 z" stroke="none"/>
<g transform="translate(0,0)">
<path d="M0,0 l-12,16 l12,16 l136,0 l-0,-16 l0,-16 z" fill="black" stroke="none"/>
<text dominant-baseline="middle" fill="white" font-family="monospace" font-size="16" text-anchor="middle" x="44" y="16">
uint16_t
</text>
<g transform="translate(102,4)">
<path d="M0,0 a4,4,0,0,0,0,24 l10,0 a4,4,0,0,0,0,-24 z" fill="white" stroke="none"/>
<text dominant-baseline="middle" fill="black" font-family="monospace" font-size="16" text-anchor="middle" x="5" y="12">
z
</text>
</g>
</g>
</g>
<g transform="translate(142,0)">
<path d="M0,0 l-12,16 l12,16 l112,0 l-0,-16 l0,-16 z" fill="black" stroke="none"/>
<text dominant-baseline="middle" fill="white" font-family="monospace" font-size="16" text-anchor="middle" x="29" y="16">
Point
</text>
<g transform="translate(72,4)">
<path d="M0,0 a4,4,0,0,0,0,24 l10,0 a4,4,0,0,0,0,-24 z" fill="white" stroke="none"/>
<text dominant-baseline="middle" fill="black" font-family="monospace" font-size="16" text-anchor="middle" x="5" y="12">
c
</text>
</g>
</g>
</g>
<g transform="translate(260,0)">
<path d="M0,0 l-12,16 l12,16 l96,0 l-0,-16 l0,-16 z" fill="black" stroke="none"/>
<text dominant-baseline="middle" fill="white" font-family="monospace" font-size="16" text-anchor="middle" x="24" y="16">
Line
</text>
<g transform="translate(62,4)">
<path d="M0,0 a4,4,0,0,0,0,24 l10,0 a4,4,0,0,0,0,-24 z" fill="white" stroke="none"/>
<text dominant-baseline="middle" fill="black" font-family="monospace" font-size="16" text-anchor="middle" x="5" y="12">
p
</text>
</g>
</g>
</g>
<g fill="#BBB" transform="translate(380,0)">
<path d="M0,0 l0,579 l344,0 l12,-13.5 l0,-533.5 l-0,-16 l0,-16 z" fill="black" stroke="none"/>
<path d="M3,3 l0,573 l339.5,0 l10.5,-12 l0,-530.5 l-0,-17.5 l0,-14.5 z" stroke="none"/>
<g fill="#999" transform="translate(0,0)">
<path d="M0,0 l0,195 l242,0 l12,-13.5 l0,-149.5 l-12,-16 l12,-16 z" fill="black" stroke="none"/>
<path d="M3,3 l0,189 l237.5,0 l10.5,-12 l0,-146.5 l-12,-17.5 l12,-14.5 z" stroke="none"/>
<g fill="#DDD" transform="translate(0,0)">
<path d="M0,0 l0,67 l124,0 l12,-13.5 l0,-21.5 l-12,-16 l12,-16 z" fill="black" stroke="none"/>
<path d="M3,3 l0,61 l119.5,0 l10.5,-12 l0,-18.5 l-12,-17.5 l12,-14.5 z" stroke="none"/>
<g transform="translate(0,0)">
<path d="M0,0 l-12,16 l12,16 l136,0 l-12,-16 l12,-16 z" fill="black" stroke="none"/>
<text dominant-baseline="middle" fill="white" font-family="monospace" font-size="16" text-anchor="middle" x="44" y="16">
uint16_t
</text>
<g transform="translate(102,4)">
<path d="M0,0 a4,4,0,0,0,0,24 l10,0 a4,4,0,0,0,0,-24 z" fill="white" stroke="none"/>
<text dominant-baseline="middle" fill="black" font-family="monospace" font-size="16" text-anchor="middle" x="5" y="12">
x
</text>
</g>
</g>
</g>
<g fill="#555" transform="translate(0,64)">
<path d="M0,0 l0,67 l124,0 l12,-13.5 l0,-21.5 l-0,-16 l0,-16 z" fill="black" stroke="none"/>
<path d="M3,3 l0,61 l119.5,0 l10.5,-12 l0,-18.5 l-0,-17.5 l0,-14.5 z" stroke="none"/>
<g transform="translate(0,0)">
<path d="M0,0 l-12,16 l12,16 l136,0 l-0,-16 l0,-16 z" fill="black" stroke="none"/>
<text dominant-baseline="middle" fill="white" font-family="monospace" font-size="16" text-anchor="middle" x="44" y="16">
uint16_t
</text>
<g transform="translate(102,4)">
<path d="M0,0 a4,4,0,0,0,0,24 l10,0 a4,4,0,0,0,0,-24 z" fill="white" stroke="none"/>
<text dominant-baseline="middle" fill="black" font-family="monospace" font-size="16" text-anchor="middle" x="5" y="12">
y
</text>
</g>
</g>
</g>
<g fill="#BBB" transform="translate(0,128)">
<path d="M0,0 l0,67 l124,0 l12,-13.5 l0,-21.5 l-0,-16 l0,-16 z" fill="black" stroke="none"/>
<path d="M3,3 l0,61 l119.5,0 l10.5,-12 l0,-18.5 l-0,-17.5 l0,-14.5 z" stroke="none"/>
<g transform="translate(0,0)">
<path d="M0,0 l-12,16 l12,16 l136,0 l-0,-16 l0,-16 z" fill="black" stroke="none"/>
<text dominant-baseline="middle" fill="white" font-family="monospace" font-size="16" text-anchor="middle" x="44" y="16">
uint16_t
</text>
<g transform="translate(102,4)">
<path d="M0,0 a4,4,0,0,0,0,24 l10,0 a4,4,0,0,0,0,-24 z" fill="white" stroke="none"/>
<text dominant-baseline="middle" fill="black" font-family="monospace" font-size="16" text-anchor="middle" x="5" y="12">
z
</text>
</g>
</g>
</g>
<g transform="translate(142,0)">
<path d="M0,0 l-12,16 l12,16 l112,0 l-12,-16 l12,-16 z" fill="black" stroke="none"/>
<text dominant-baseline="middle" fill="white" font-family="monospace" font-size="16" text-anchor="middle" x="29" y="16">
Point
</text>
<g transform="translate(72,4)">
<path d="M0,0 a4,4,0,0,0,0,24 l10,0 a4,4,0,0,0,0,-24 z" fill="white" stroke="none"/>
<text dominant-baseline="middle" fill="black" font-family="monospace" font-size="16" text-anchor="middle" x="5" y="12">
a
</text>
</g>
</g>
</g>
<g fill="#555" transform="translate(0,192)">
<path d="M0,0 l0,195 l242,0 l12,-13.5 l0,-149.5 l-0,-16 l0,-16 z" fill="black" stroke="none"/>
<path d="M3,3 l0,189 l237.5,0 l10.5,-12 l0,-146.5 l-0,-17.5 l0,-14.5 z" stroke="none"/>
<g fill="#999" transform="translate(0,0)">
<path d="M0,0 l0,67 l124,0 l12,-13.5 l0,-21.5 l-12,-16 l12,-16 z" fill="black" stroke="none"/>
<path d="M3,3 l0,61 l119.5,0 l10.5,-12 l0,-18.5 l-12,-17.5 l12,-14.5 z" stroke="none"/>
<g transform="translate(0,0)">
<path d="M0,0 l-12,16 l12,16 l136,0 l-12,-16 l12,-16 z" fill="black" stroke="none"/>
<text dominant-baseline="middle" fill="white" font-family="monospace" font-size="16" text-anchor="middle" x="44" y="16">
uint16_t
</text>
<g transform="translate(102,4)">
<path d="M0,0 a4,4,0,0,0,0,24 l10,0 a4,4,0,0,0,0,-24 z" fill="white" stroke="none"/>
<text dominant-baseline="middle" fill="black" font-family="monospace" font-size="16" text-anchor="middle" x="5" y="12">
x
</text>
</g>
</g>
</g>
<g fill="#BBB" transform="translate(0,64)">
<path d="M0,0 l0,67 l124,0 l12,-13.5 l0,-21.5 l-0,-16 l0,-16 z" fill="black" stroke="none"/>
<path d="M3,3 l0,61 l119.5,0 l10.5,-12 l0,-18.5 l-0,-17.5 l0,-14.5 z" stroke="none"/>
<g transform="translate(0,0)">
<path d="M0,0 l-12,16 l12,16 l136,0 l-0,-16 l0,-16 z" fill="black" stroke="none"/>
<text dominant-baseline="middle" fill="white" font-family="monospace" font-size="16" text-anchor="middle" x="44" y="16">
uint16_t
</text>
<g transform="translate(102,4)">
<path d="M0,0 a4,4,0,0,0,0,24 l10,0 a4,4,0,0,0,0,-24 z" fill="white" stroke="none"/>
<text dominant-baseline="middle" fill="black" font-family="monospace" font-size="16" text-anchor="middle" x="5" y="12">
y
</text>
</g>
</g>
</g>
<g fill="#999" transform="translate(0,128)">
<path d="M0,0 l0,67 l124,0 l12,-13.5 l0,-21.5 l-0,-16 l0,-16 z" fill="black" stroke="none"/>
<path d="M3,3 l0,61 l119.5,0 l10.5,-12 l0,-18.5 l-0,-17.5 l0,-14.5 z" stroke="none"/>
<g transform="translate(0,0)">
<path d="M0,0 l-12,16 l12,16 l136,0 l-0,-16 l0,-16 z" fill="black" stroke="none"/>
<text dominant-baseline="middle" fill="white" font-family="monospace" font-size="16" text-anchor="middle" x="44" y="16">
uint16_t
</text>
<g transform="translate(102,4)">
<path d="M0,0 a4,4,0,0,0,0,24 l10,0 a4,4,0,0,0,0,-24 z" fill="white" stroke="none"/>
<text dominant-baseline="middle" fill="black" font-family="monospace" font-size="16" text-anchor="middle" x="5" y="12">
z
</text>
</g>
</g>
</g>
<g transform="translate(142,0)">
<path d="M0,0 l-12,16 l12,16 l112,0 l-0,-16 l0,-16 z" fill="black" stroke="none"/>
<text dominant-baseline="middle" fill="white" font-family="monospace" font-size="16" text-anchor="middle" x="29" y="16">
Point
</text>
<g transform="translate(72,4)">
<path d="M0,0 a4,4,0,0,0,0,24 l10,0 a4,4,0,0,0,0,-24 z" fill="white" stroke="none"/>
<text dominant-baseline="middle" fill="black" font-family="monospace" font-size="16" text-anchor="middle" x="5" y="12">
b
</text>
</g>
</g>
</g>
<g fill="#777" transform="translate(0,384)">
<path d="M0,0 l0,195 l242,0 l12,-13.5 l0,-149.5 l-0,-16 l0,-16 z" fill="black" stroke="none"/>
<path d="M3,3 l0,189 l237.5,0 l10.5,-12 l0,-146.5 l-0,-17.5 l0,-14.5 z" stroke="none"/>
<g fill="#BBB" transform="translate(0,0)">
<path d="M0,0 l0,67 l124,0 l12,-13.5 l0,-21.5 l-12,-16 l12,-16 z" fill="black" stroke="none"/>
<path d="M3,3 l0,61 l119.5,0 l10.5,-12 l0,-18.5 l-12,-17.5 l12,-14.5 z" stroke="none"/>
<g transform="translate(0,0)">
<path d="M0,0 l-12,16 l12,16 l136,0 l-12,-16 l12,-16 z" fill="black" stroke="none"/>
<text dominant-baseline="middle" fill="white" font-family="monospace" font-size="16" text-anchor="middle" x="44" y="16">
uint16_t
</text>
<g transform="translate(102,4)">
<path d="M0,0 a4,4,0,0,0,0,24 l10,0 a4,4,0,0,0,0,-24 z" fill="white" stroke="none"/>
<text dominant-baseline="middle" fill="black" font-family="monospace" font-size="16" text-anchor="middle" x="5" y="12">
x
</text>
</g>
</g>
</g>
<g fill="#999" transform="translate(0,64)">
<path d="M0,0 l0,67 l124,0 l12,-13.5 l0,-21.5 l-0,-16 l0,-16 z" fill="black" stroke="none"/>
<path d="M3,3 l0,61 l119.5,0 l10.5,-12 l0,-18.5 l-0,-17.5 l0,-14.5 z" stroke="none"/>
<g transform="translate(0,0)">
<path d="M0,0 l-12,16 l12,16 l136,0 l-0,-16 l0,-16 z" fill="black" stroke="none"/>
<text dominant-baseline="middle" fill="white" font-family="monospace" font-size="16" text-anchor="middle" x="44" y="16">
uint16_t
</text>
<g transform="translate(102,4)">
<path d="M0,0 a4,4,0,0,0,0,24 l10,0 a4,4,0,0,0,0,-24 z" fill="white" stroke="none"/>
<text dominant-baseline="middle" fill="black" font-family="monospace" font-size="16" text-anchor="middle" x="5" y="12">
y
</text>
</g>
</g>
</g>
<g fill="#BBB" transform="translate(0,128)">
<path d="M0,0 l0,67 l124,0 l12,-13.5 l0,-21.5 l-0,-16 l0,-16 z" fill="black" stroke="none"/>
<path d="M3,3 l0,61 l119.5,0 l10.5,-12 l0,-18.5 l-0,-17.5 l0,-14.5 z" stroke="none"/>
<g transform="translate(0,0)">
<path d="M0,0 l-12,16 l12,16 l136,0 l-0,-16 l0,-16 z" fill="black" stroke="none"/>
<text dominant-baseline="middle" fill="white" font-family="monospace" font-size="16" text-anchor="middle" x="44" y="16">
uint16_t
</text>
<g transform="translate(102,4)">
<path d="M0,0 a4,4,0,0,0,0,24 l10,0 a4,4,0,0,0,0,-24 z" fill="white" stroke="none"/>
<text dominant-baseline="middle" fill="black" font-family="monospace" font-size="16" text-anchor="middle" x="5" y="12">
z
</text>
</g>
</g>
</g>
<g transform="translate(142,0)">
<path d="M0,0 l-12,16 l12,16 l112,0 l-0,-16 l0,-16 z" fill="black" stroke="none"/>
<text dominant-baseline="middle" fill="white" font-family="monospace" font-size="16" text-anchor="middle" x="29" y="16">
Point
</text>
<g transform="translate(72,4)">
<path d="M0,0 a4,4,0,0,0,0,24 l10,0 a4,4,0,0,0,0,-24 z" fill="white" stroke="none"/>
<text dominant-baseline="middle" fill="black" font-family="monospace" font-size="16" text-anchor="middle" x="5" y="12">
c
</text>
</g>
</g>
</g>
<g transform="translate(260,0)">
<path d="M0,0 l-12,16 l12,16 l96,0 l-0,-16 l0,-16 z" fill="black" stroke="none"/>
<text dominant-baseline="middle" fill="white" font-family="monospace" font-size="16" text-anchor="middle" x="24" y="16">
Line
</text>
<g transform="translate(62,4)">
<path d="M0,0 a4,4,0,0,0,0,24 l10,0 a4,4,0,0,0,0,-24 z" fill="white" stroke="none"/>
<text dominant-baseline="middle" fill="black" font-family="monospace" font-size="16" text-anchor="middle" x="5" y="12">
r
</text>
</g>
</g>
</g>
<g transform="translate(766,0)">
<path d="M0,0 l-12,16 l12,16 l104,0 l-0,-16 l0,-16 z" fill="black" stroke="none"/>
<text dominant-baseline="middle" fill="white" font-family="monospace" font-size="16" text-anchor="middle" x="49" y="16">
LineUnion
</text>
</g>
</g>
</svg>