<svg viewBox="-152.5 0 396.5 419" xmlns="http://www.w3.org/2000/svg">
<g>
<g>
<g transform="translate(0,0)">
<path d="M0,0 l0,35 l118,0 l0,-35 z" fill="black" stroke="none"/>
<path d="M3,3 l0,29 l112,0 l0,-29 z" fill="white" stroke="none"/>
<text dominant-baseline="middle" fill="black" font-family="monospace" font-size="16" text-anchor="middle" x="59" y="17.5">
01010011
</text>
</g>
<g transform="translate(-135,0)">
<g transform="translate(0,0)">
<path d="M0,0 a4,17.5,0,0,0,0,35 l138,0 l0,-3 l12,-16 l-12,-16 z" fill="black" stroke="none"/>
<path d="M3,3 a4,14.5,0,0,0,0,29 l132,0 l0,-1.5 l10.5,-14.5 l-9,-13 z" fill="#EEE" stroke="none"/>
<text dominant-baseline="middle" fill="black" font-family="Noto Serif" font-size="16" text-anchor="middle" x="69" y="17.5">
83
</text>
</g>
</g>
<g transform="translate(112,0)">
<g transform="translate(0,0)">
<path d="M0,0 l-12,16 l12,16 l132,0 l-0,-16 l0,-16 z" fill="black" stroke="none"/>
<text dominant-baseline="middle" fill="white" font-family="monospace" font-size="16" text-anchor="middle" x="24" y="16">
byte
</text>
<g transform="translate(84,5.5)">
<path d="M0,0 a4,4,0,0,0,0,24 l10,0 a4,4,0,0,0,0,-24 z" fill="white" stroke="none"/>
<text dominant-baseline="middle" fill="black" font-family="monospace" font-size="16" text-anchor="middle" x="5" y="12">
0
</text>
</g>
</g>
</g>
<g transform="translate(0,32)">
<path d="M0,0 l0,35 l118,0 l0,-35 z" fill="black" stroke="none"/>
<path d="M3,3 l0,29 l112,0 l0,-29 z" fill="white" stroke="none"/>
<text dominant-baseline="middle" fill="black" font-family="monospace" font-size="16" text-anchor="middle" x="59" y="17.5">
01101111
</text>
</g>
<g transform="translate(-135,0)">
<g transform="translate(0,32)">
<path d="M0,0 a4,17.5,0,0,0,0,35 l138,0 l0,-3 l12,-16 l-12,-16 z" fill="black" stroke="none"/>
<path d="M3,3 a4,14.5,0,0,0,0,29 l132,0 l0,-1.5 l10.5,-14.5 l-9,-13 z" fill="#EEE" stroke="none"/>
<text dominant-baseline="middle" fill="black" font-family="Noto Serif" font-size="16" text-anchor="middle" x="69" y="17.5">
111
</text>
</g>
</g>
<g transform="translate(112,32)">
<g transform="translate(0,0)">
<path d="M0,0 l-12,16 l12,16 l132,0 l-0,-16 l0,-16 z" fill="black" stroke="none"/>
<text dominant-baseline="middle" fill="white" font-family="monospace" font-size="16" text-anchor="middle" x="24" y="16">
byte
</text>
<g transform="translate(84,5.5)">
<path d="M0,0 a4,4,0,0,0,0,24 l10,0 a4,4,0,0,0,0,-24 z" fill="white" stroke="none"/>
<text dominant-baseline="middle" fill="black" font-family="monospace" font-size="16" text-anchor="middle" x="5" y="12">
1
</text>
</g>
</g>
</g>
<g transform="translate(0,64)">
<path d="M0,0 l0,35 l118,0 l0,-35 z" fill="black" stroke="none"/>
<path d="M3,3 l0,29 l112,0 l0,-29 z" fill="white" stroke="none"/>
<text dominant-baseline="middle" fill="black" font-family="monospace" font-size="16" text-anchor="middle" x="59" y="17.5">
01101101
</text>
</g>
<g transform="translate(-135,0)">
<g transform="translate(0,64)">
<path d="M0,0 a4,17.5,0,0,0,0,35 l138,0 l0,-3 l12,-16 l-12,-16 z" fill="black" stroke="none"/>
<path d="M3,3 a4,14.5,0,0,0,0,29 l132,0 l0,-1.5 l10.5,-14.5 l-9,-13 z" fill="#EEE" stroke="none"/>
<text dominant-baseline="middle" fill="black" font-family="Noto Serif" font-size="16" text-anchor="middle" x="69" y="17.5">
109
</text>
</g>
</g>
<g transform="translate(112,64)">
<g transform="translate(0,0)">
<path d="M0,0 l-12,16 l12,16 l132,0 l-0,-16 l0,-16 z" fill="black" stroke="none"/>
<text dominant-baseline="middle" fill="white" font-family="monospace" font-size="16" text-anchor="middle" x="24" y="16">
byte
</text>
<g transform="translate(84,5.5)">
<path d="M0,0 a4,4,0,0,0,0,24 l10,0 a4,4,0,0,0,0,-24 z" fill="white" stroke="none"/>
<text dominant-baseline="middle" fill="black" font-family="monospace" font-size="16" text-anchor="middle" x="5" y="12">
2
</text>
</g>
</g>
</g>
<g transform="translate(0,96)">
<path d="M0,0 l0,35 l118,0 l0,-35 z" fill="black" stroke="none"/>
<path d="M3,3 l0,29 l112,0 l0,-29 z" fill="white" stroke="none"/>
<text dominant-baseline="middle" fill="black" font-family="monospace" font-size="16" text-anchor="middle" x="59" y="17.5">
01100101
</text>
</g>
<g transform="translate(-135,0)">
<g transform="translate(0,96)">
<path d="M0,0 a4,17.5,0,0,0,0,35 l138,0 l0,-3 l12,-16 l-12,-16 z" fill="black" stroke="none"/>
<path d="M3,3 a4,14.5,0,0,0,0,29 l132,0 l0,-1.5 l10.5,-14.5 l-9,-13 z" fill="#EEE" stroke="none"/>
<text dominant-baseline="middle" fill="black" font-family="Noto Serif" font-size="16" text-anchor="middle" x="69" y="17.5">
101
</text>
</g>
</g>
<g transform="translate(112,96)">
<g transform="translate(0,0)">
<path d="M0,0 l-12,16 l12,16 l132,0 l-0,-16 l0,-16 z" fill="black" stroke="none"/>
<text dominant-baseline="middle" fill="white" font-family="monospace" font-size="16" text-anchor="middle" x="24" y="16">
byte
</text>
<g transform="translate(84,5.5)">
<path d="M0,0 a4,4,0,0,0,0,24 l10,0 a4,4,0,0,0,0,-24 z" fill="white" stroke="none"/>
<text dominant-baseline="middle" fill="black" font-family="monospace" font-size="16" text-anchor="middle" x="5" y="12">
3
</text>
</g>
</g>
</g>
<g transform="translate(0,128)">
<path d="M0,0 l0,35 l118,0 l0,-35 z" fill="black" stroke="none"/>
<path d="M3,3 l0,29 l112,0 l0,-29 z" fill="white" stroke="none"/>
<text dominant-baseline="middle" fill="black" font-family="monospace" font-size="16" text-anchor="middle" x="59" y="17.5">
01000011
</text>
</g>
<g transform="translate(-135,0)">
<g transform="translate(0,128)">
<path d="M0,0 a4,17.5,0,0,0,0,35 l138,0 l0,-3 l12,-16 l-12,-16 z" fill="black" stroke="none"/>
<path d="M3,3 a4,14.5,0,0,0,0,29 l132,0 l0,-1.5 l10.5,-14.5 l-9,-13 z" fill="#EEE" stroke="none"/>
<text dominant-baseline="middle" fill="black" font-family="Noto Serif" font-size="16" text-anchor="middle" x="69" y="17.5">
67
</text>
</g>
</g>
<g transform="translate(112,128)">
<g transform="translate(0,0)">
<path d="M0,0 l-12,16 l12,16 l132,0 l-0,-16 l0,-16 z" fill="black" stroke="none"/>
<text dominant-baseline="middle" fill="white" font-family="monospace" font-size="16" text-anchor="middle" x="24" y="16">
byte
</text>
<g transform="translate(84,5.5)">
<path d="M0,0 a4,4,0,0,0,0,24 l10,0 a4,4,0,0,0,0,-24 z" fill="white" stroke="none"/>
<text dominant-baseline="middle" fill="black" font-family="monospace" font-size="16" text-anchor="middle" x="5" y="12">
4
</text>
</g>
</g>
</g>
<g transform="translate(0,160)">
<path d="M0,0 l0,35 l118,0 l0,-35 z" fill="black" stroke="none"/>
<path d="M3,3 l0,29 l112,0 l0,-29 z" fill="white" stroke="none"/>
<text dominant-baseline="middle" fill="black" font-family="monospace" font-size="16" text-anchor="middle" x="59" y="17.5">
01101111
</text>
</g>
<g transform="translate(-135,0)">
<g transform="translate(0,160)">
<path d="M0,0 a4,17.5,0,0,0,0,35 l138,0 l0,-3 l12,-16 l-12,-16 z" fill="black" stroke="none"/>
<path d="M3,3 a4,14.5,0,0,0,0,29 l132,0 l0,-1.5 l10.5,-14.5 l-9,-13 z" fill="#EEE" stroke="none"/>
<text dominant-baseline="middle" fill="black" font-family="Noto Serif" font-size="16" text-anchor="middle" x="69" y="17.5">
111
</text>
</g>
</g>
<g transform="translate(112,160)">
<g transform="translate(0,0)">
<path d="M0,0 l-12,16 l12,16 l132,0 l-0,-16 l0,-16 z" fill="black" stroke="none"/>
<text dominant-baseline="middle" fill="white" font-family="monospace" font-size="16" text-anchor="middle" x="24" y="16">
byte
</text>
<g transform="translate(84,5.5)">
<path d="M0,0 a4,4,0,0,0,0,24 l10,0 a4,4,0,0,0,0,-24 z" fill="white" stroke="none"/>
<text dominant-baseline="middle" fill="black" font-family="monospace" font-size="16" text-anchor="middle" x="5" y="12">
5
</text>
</g>
</g>
</g>
<g transform="translate(0,192)">
<path d="M0,0 l0,35 l118,0 l0,-35 z" fill="black" stroke="none"/>
<path d="M3,3 l0,29 l112,0 l0,-29 z" fill="white" stroke="none"/>
<text dominant-baseline="middle" fill="black" font-family="monospace" font-size="16" text-anchor="middle" x="59" y="17.5">
01101111
</text>
</g>
<g transform="translate(-135,0)">
<g transform="translate(0,192)">
<path d="M0,0 a4,17.5,0,0,0,0,35 l138,0 l0,-3 l12,-16 l-12,-16 z" fill="black" stroke="none"/>
<path d="M3,3 a4,14.5,0,0,0,0,29 l132,0 l0,-1.5 l10.5,-14.5 l-9,-13 z" fill="#EEE" stroke="none"/>
<text dominant-baseline="middle" fill="black" font-family="Noto Serif" font-size="16" text-anchor="middle" x="69" y="17.5">
111
</text>
</g>
</g>
<g transform="translate(112,192)">
<g transform="translate(0,0)">
<path d="M0,0 l-12,16 l12,16 l132,0 l-0,-16 l0,-16 z" fill="black" stroke="none"/>
<text dominant-baseline="middle" fill="white" font-family="monospace" font-size="16" text-anchor="middle" x="24" y="16">
byte
</text>
<g transform="translate(84,5.5)">
<path d="M0,0 a4,4,0,0,0,0,24 l10,0 a4,4,0,0,0,0,-24 z" fill="white" stroke="none"/>
<text dominant-baseline="middle" fill="black" font-family="monospace" font-size="16" text-anchor="middle" x="5" y="12">
6
</text>
</g>
</g>
</g>
<g transform="translate(0,224)">
<path d="M0,0 l0,35 l118,0 l0,-35 z" fill="black" stroke="none"/>
<path d="M3,3 l0,29 l112,0 l0,-29 z" fill="white" stroke="none"/>
<text dominant-baseline="middle" fill="black" font-family="monospace" font-size="16" text-anchor="middle" x="59" y="17.5">
01101100
</text>
</g>
<g transform="translate(-135,0)">
<g transform="translate(0,224)">
<path d="M0,0 a4,17.5,0,0,0,0,35 l138,0 l0,-3 l12,-16 l-12,-16 z" fill="black" stroke="none"/>
<path d="M3,3 a4,14.5,0,0,0,0,29 l132,0 l0,-1.5 l10.5,-14.5 l-9,-13 z" fill="#EEE" stroke="none"/>
<text dominant-baseline="middle" fill="black" font-family="Noto Serif" font-size="16" text-anchor="middle" x="69" y="17.5">
108
</text>
</g>
</g>
<g transform="translate(112,224)">
<g transform="translate(0,0)">
<path d="M0,0 l-12,16 l12,16 l132,0 l-0,-16 l0,-16 z" fill="black" stroke="none"/>
<text dominant-baseline="middle" fill="white" font-family="monospace" font-size="16" text-anchor="middle" x="24" y="16">
byte
</text>
<g transform="translate(84,5.5)">
<path d="M0,0 a4,4,0,0,0,0,24 l10,0 a4,4,0,0,0,0,-24 z" fill="white" stroke="none"/>
<text dominant-baseline="middle" fill="black" font-family="monospace" font-size="16" text-anchor="middle" x="5" y="12">
7
</text>
</g>
</g>
</g>
</g>
<g transform="translate(0,256)">
<path d="M0,0 l0,35 l118,0 l0,-35 z" fill="black" stroke="none"/>
<path d="M3,3 l0,29 l112,0 l0,-29 z" fill="white" stroke="none"/>
<text dominant-baseline="middle" fill="black" font-family="monospace" font-size="16" text-anchor="middle" x="59" y="17.5">
...
</text>
</g>
<g>
<g transform="translate(0,288)">
<path d="M0,0 l0,35 l118,0 l0,-35 z" fill="black" stroke="none"/>
<path d="M3,3 l0,29 l112,0 l0,-29 z" fill="white" stroke="none"/>
<text dominant-baseline="middle" fill="black" font-family="monospace" font-size="16" text-anchor="middle" x="59" y="17.5">
01000100
</text>
</g>
<g transform="translate(-135,0)">
<g transform="translate(0,288)">
<path d="M0,0 a4,17.5,0,0,0,0,35 l138,0 l0,-3 l12,-16 l-12,-16 z" fill="black" stroke="none"/>
<path d="M3,3 a4,14.5,0,0,0,0,29 l132,0 l0,-1.5 l10.5,-14.5 l-9,-13 z" fill="#EEE" stroke="none"/>
<text dominant-baseline="middle" fill="black" font-family="Noto Serif" font-size="16" text-anchor="middle" x="69" y="17.5">
68
</text>
</g>
</g>
<g transform="translate(112,288)">
<g transform="translate(0,0)">
<path d="M0,0 l-12,16 l12,16 l132,0 l-0,-16 l0,-16 z" fill="black" stroke="none"/>
<text dominant-baseline="middle" fill="white" font-family="monospace" font-size="16" text-anchor="middle" x="24" y="16">
byte
</text>
<g transform="translate(64,5.5)">
<path d="M0,0 a4,4,0,0,0,0,24 l30,0 a4,4,0,0,0,0,-24 z" fill="white" stroke="none"/>
<text dominant-baseline="middle" fill="black" font-family="monospace" font-size="16" text-anchor="middle" x="15" y="12">
N-4
</text>
</g>
</g>
</g>
<g transform="translate(0,320)">
<path d="M0,0 l0,35 l118,0 l0,-35 z" fill="black" stroke="none"/>
<path d="M3,3 l0,29 l112,0 l0,-29 z" fill="white" stroke="none"/>
<text dominant-baseline="middle" fill="black" font-family="monospace" font-size="16" text-anchor="middle" x="59" y="17.5">
01100001
</text>
</g>
<g transform="translate(-135,0)">
<g transform="translate(0,320)">
<path d="M0,0 a4,17.5,0,0,0,0,35 l138,0 l0,-3 l12,-16 l-12,-16 z" fill="black" stroke="none"/>
<path d="M3,3 a4,14.5,0,0,0,0,29 l132,0 l0,-1.5 l10.5,-14.5 l-9,-13 z" fill="#EEE" stroke="none"/>
<text dominant-baseline="middle" fill="black" font-family="Noto Serif" font-size="16" text-anchor="middle" x="69" y="17.5">
97
</text>
</g>
</g>
<g transform="translate(112,320)">
<g transform="translate(0,0)">
<path d="M0,0 l-12,16 l12,16 l132,0 l-0,-16 l0,-16 z" fill="black" stroke="none"/>
<text dominant-baseline="middle" fill="white" font-family="monospace" font-size="16" text-anchor="middle" x="24" y="16">
byte
</text>
<g transform="translate(64,5.5)">
<path d="M0,0 a4,4,0,0,0,0,24 l30,0 a4,4,0,0,0,0,-24 z" fill="white" stroke="none"/>
<text dominant-baseline="middle" fill="black" font-family="monospace" font-size="16" text-anchor="middle" x="15" y="12">
N-3
</text>
</g>
</g>
</g>
<g transform="translate(0,352)">
<path d="M0,0 l0,35 l118,0 l0,-35 z" fill="black" stroke="none"/>
<path d="M3,3 l0,29 l112,0 l0,-29 z" fill="white" stroke="none"/>
<text dominant-baseline="middle" fill="black" font-family="monospace" font-size="16" text-anchor="middle" x="59" y="17.5">
01110100
</text>
</g>
<g transform="translate(-135,0)">
<g transform="translate(0,352)">
<path d="M0,0 a4,17.5,0,0,0,0,35 l138,0 l0,-3 l12,-16 l-12,-16 z" fill="black" stroke="none"/>
<path d="M3,3 a4,14.5,0,0,0,0,29 l132,0 l0,-1.5 l10.5,-14.5 l-9,-13 z" fill="#EEE" stroke="none"/>
<text dominant-baseline="middle" fill="black" font-family="Noto Serif" font-size="16" text-anchor="middle" x="69" y="17.5">
116
</text>
</g>
</g>
<g transform="translate(112,352)">
<g transform="translate(0,0)">
<path d="M0,0 l-12,16 l12,16 l132,0 l-0,-16 l0,-16 z" fill="black" stroke="none"/>
<text dominant-baseline="middle" fill="white" font-family="monospace" font-size="16" text-anchor="middle" x="24" y="16">
byte
</text>
<g transform="translate(64,5.5)">
<path d="M0,0 a4,4,0,0,0,0,24 l30,0 a4,4,0,0,0,0,-24 z" fill="white" stroke="none"/>
<text dominant-baseline="middle" fill="black" font-family="monospace" font-size="16" text-anchor="middle" x="15" y="12">
N-2
</text>
</g>
</g>
</g>
<g transform="translate(0,384)">
<path d="M0,0 l0,35 l118,0 l0,-35 z" fill="black" stroke="none"/>
<path d="M3,3 l0,29 l112,0 l0,-29 z" fill="white" stroke="none"/>
<text dominant-baseline="middle" fill="black" font-family="monospace" font-size="16" text-anchor="middle" x="59" y="17.5">
01100001
</text>
</g>
<g transform="translate(-135,0)">
<g transform="translate(0,384)">
<path d="M0,0 a4,17.5,0,0,0,0,35 l138,0 l0,-3 l12,-16 l-12,-16 z" fill="black" stroke="none"/>
<path d="M3,3 a4,14.5,0,0,0,0,29 l132,0 l0,-1.5 l10.5,-14.5 l-9,-13 z" fill="#EEE" stroke="none"/>
<text dominant-baseline="middle" fill="black" font-family="Noto Serif" font-size="16" text-anchor="middle" x="69" y="17.5">
97
</text>
</g>
</g>
<g transform="translate(112,384)">
<g transform="translate(0,0)">
<path d="M0,0 l-12,16 l12,16 l132,0 l-0,-16 l0,-16 z" fill="black" stroke="none"/>
<text dominant-baseline="middle" fill="white" font-family="monospace" font-size="16" text-anchor="middle" x="24" y="16">
byte
</text>
<g transform="translate(64,5.5)">
<path d="M0,0 a4,4,0,0,0,0,24 l30,0 a4,4,0,0,0,0,-24 z" fill="white" stroke="none"/>
<text dominant-baseline="middle" fill="black" font-family="monospace" font-size="16" text-anchor="middle" x="15" y="12">
N-1
</text>
</g>
</g>
</g>
</g>
</g>
</svg>