<svg viewBox="0 0 1024 1024" xmlns="http://www.w3.org/2000/svg">
<g transform="translate(16,16)">
<path d="M0,0 l0,387 l694,0 l12,-13.5 l0,-341.5 l-0,-16 l0,-16 z" fill="black" stroke="none"/>
<path d="M3,3 l0,381 l689.5,0 l10.5,-12 l0,-338.5 l-0,-17.5 l0,-14.5 z" fill="grey" stroke="none"/>
<g transform="translate(0,0)">
<path d="M0,0 l0,131 l582,0 l12,-13.5 l0,-85.5 l-12,-16 l12,-16 z" fill="black" stroke="none"/>
<path d="M3,3 l0,125 l577.5,0 l10.5,-12 l0,-82.5 l-12,-17.5 l12,-14.5 z" fill="grey" stroke="none"/>
<g transform="translate(0,0)">
<g transform="translate(0,0)">
<path d="M0,0 l-12,16 l12,16 l132,0 l-0,-16 l0,-16 z" fill="black" stroke="none"/>
<text dominant-baseline="middle" fill="white" font-family="monospace" font-size="16" text-anchor="middle" x="39" y="16">
uint8_t
</text>
</g>
<g transform="translate(90,4)">
<path d="M0,0 a4,4,0,0,0,0,24 l10,0 a4,4,0,0,0,0,-24 z" fill="white" stroke="none"/>
<text dominant-baseline="middle" fill="black" font-family="monospace" font-size="16" text-anchor="middle" x="5" y="12">
x
</text>
</g>
</g>
<g transform="translate(150,0)">
<path d="M0,0 l0,67 l130,0 l12,-13.5 l0,-21.5 l-0,-16 l0,-16 z" fill="black" stroke="none"/>
<path d="M3,3 l0,61 l125.5,0 l10.5,-12 l0,-18.5 l-0,-17.5 l0,-14.5 z" fill="grey" stroke="none"/>
<g transform="translate(0,0)">
<path d="M0,0 l-12,16 l12,16 l142,0 l-0,-16 l0,-16 z" fill="black" stroke="none"/>
<text dominant-baseline="middle" fill="white" font-family="monospace" font-size="16" text-anchor="middle" x="44" y="16">
uint16_t
</text>
</g>
<g transform="translate(100,4)">
<path d="M0,0 a4,4,0,0,0,0,24 l10,0 a4,4,0,0,0,0,-24 z" fill="white" stroke="none"/>
<text dominant-baseline="middle" fill="black" font-family="monospace" font-size="16" text-anchor="middle" x="5" y="12">
y
</text>
</g>
</g>
<g transform="translate(310,0)">
<path d="M0,0 l0,131 l130,0 l12,-13.5 l0,-85.5 l-0,-16 l0,-16 z" fill="black" stroke="none"/>
<path d="M3,3 l0,125 l125.5,0 l10.5,-12 l0,-82.5 l-0,-17.5 l0,-14.5 z" fill="grey" stroke="none"/>
<g transform="translate(0,0)">
<path d="M0,0 l-12,16 l12,16 l142,0 l-0,-16 l0,-16 z" fill="black" stroke="none"/>
<text dominant-baseline="middle" fill="white" font-family="monospace" font-size="16" text-anchor="middle" x="44" y="16">
uint32_t
</text>
</g>
<g transform="translate(100,4)">
<path d="M0,0 a4,4,0,0,0,0,24 l10,0 a4,4,0,0,0,0,-24 z" fill="white" stroke="none"/>
<text dominant-baseline="middle" fill="black" font-family="monospace" font-size="16" text-anchor="middle" x="5" y="12">
z
</text>
</g>
</g>
<g transform="translate(470,0)">
<path d="M0,0 l-12,16 l12,16 l124,0 l-12,-16 l12,-16 z" fill="black" stroke="none"/>
<text dominant-baseline="middle" fill="white" font-family="monospace" font-size="16" text-anchor="middle" x="29" y="16">
Point
</text>
</g>
<g transform="translate(552,4)">
<path d="M0,0 a4,4,0,0,0,0,24 l10,0 a4,4,0,0,0,0,-24 z" fill="white" stroke="none"/>
<text dominant-baseline="middle" fill="black" font-family="monospace" font-size="16" text-anchor="middle" x="5" y="12">
a
</text>
</g>
</g>
<g transform="translate(0,128)">
<path d="M0,0 l0,131 l582,0 l12,-13.5 l0,-85.5 l-0,-16 l0,-16 z" fill="black" stroke="none"/>
<path d="M3,3 l0,125 l577.5,0 l10.5,-12 l0,-82.5 l-0,-17.5 l0,-14.5 z" fill="grey" stroke="none"/>
<g transform="translate(0,0)">
<g transform="translate(0,0)">
<path d="M0,0 l-12,16 l12,16 l132,0 l-0,-16 l0,-16 z" fill="black" stroke="none"/>
<text dominant-baseline="middle" fill="white" font-family="monospace" font-size="16" text-anchor="middle" x="39" y="16">
uint8_t
</text>
</g>
<g transform="translate(90,4)">
<path d="M0,0 a4,4,0,0,0,0,24 l10,0 a4,4,0,0,0,0,-24 z" fill="white" stroke="none"/>
<text dominant-baseline="middle" fill="black" font-family="monospace" font-size="16" text-anchor="middle" x="5" y="12">
x
</text>
</g>
</g>
<g transform="translate(150,0)">
<path d="M0,0 l0,67 l130,0 l12,-13.5 l0,-21.5 l-0,-16 l0,-16 z" fill="black" stroke="none"/>
<path d="M3,3 l0,61 l125.5,0 l10.5,-12 l0,-18.5 l-0,-17.5 l0,-14.5 z" fill="grey" stroke="none"/>
<g transform="translate(0,0)">
<path d="M0,0 l-12,16 l12,16 l142,0 l-0,-16 l0,-16 z" fill="black" stroke="none"/>
<text dominant-baseline="middle" fill="white" font-family="monospace" font-size="16" text-anchor="middle" x="44" y="16">
uint16_t
</text>
</g>
<g transform="translate(100,4)">
<path d="M0,0 a4,4,0,0,0,0,24 l10,0 a4,4,0,0,0,0,-24 z" fill="white" stroke="none"/>
<text dominant-baseline="middle" fill="black" font-family="monospace" font-size="16" text-anchor="middle" x="5" y="12">
y
</text>
</g>
</g>
<g transform="translate(310,0)">
<path d="M0,0 l0,131 l130,0 l12,-13.5 l0,-85.5 l-0,-16 l0,-16 z" fill="black" stroke="none"/>
<path d="M3,3 l0,125 l125.5,0 l10.5,-12 l0,-82.5 l-0,-17.5 l0,-14.5 z" fill="grey" stroke="none"/>
<g transform="translate(0,0)">
<path d="M0,0 l-12,16 l12,16 l142,0 l-0,-16 l0,-16 z" fill="black" stroke="none"/>
<text dominant-baseline="middle" fill="white" font-family="monospace" font-size="16" text-anchor="middle" x="44" y="16">
uint32_t
</text>
</g>
<g transform="translate(100,4)">
<path d="M0,0 a4,4,0,0,0,0,24 l10,0 a4,4,0,0,0,0,-24 z" fill="white" stroke="none"/>
<text dominant-baseline="middle" fill="black" font-family="monospace" font-size="16" text-anchor="middle" x="5" y="12">
z
</text>
</g>
</g>
<g transform="translate(470,0)">
<path d="M0,0 l-12,16 l12,16 l124,0 l-0,-16 l0,-16 z" fill="black" stroke="none"/>
<text dominant-baseline="middle" fill="white" font-family="monospace" font-size="16" text-anchor="middle" x="29" y="16">
Point
</text>
</g>
<g transform="translate(552,4)">
<path d="M0,0 a4,4,0,0,0,0,24 l10,0 a4,4,0,0,0,0,-24 z" fill="white" stroke="none"/>
<text dominant-baseline="middle" fill="black" font-family="monospace" font-size="16" text-anchor="middle" x="5" y="12">
b
</text>
</g>
</g>
<g transform="translate(0,256)">
<path d="M0,0 l0,131 l582,0 l12,-13.5 l0,-85.5 l-0,-16 l0,-16 z" fill="black" stroke="none"/>
<path d="M3,3 l0,125 l577.5,0 l10.5,-12 l0,-82.5 l-0,-17.5 l0,-14.5 z" fill="grey" stroke="none"/>
<g transform="translate(0,0)">
<g transform="translate(0,0)">
<path d="M0,0 l-12,16 l12,16 l132,0 l-0,-16 l0,-16 z" fill="black" stroke="none"/>
<text dominant-baseline="middle" fill="white" font-family="monospace" font-size="16" text-anchor="middle" x="39" y="16">
uint8_t
</text>
</g>
<g transform="translate(90,4)">
<path d="M0,0 a4,4,0,0,0,0,24 l10,0 a4,4,0,0,0,0,-24 z" fill="white" stroke="none"/>
<text dominant-baseline="middle" fill="black" font-family="monospace" font-size="16" text-anchor="middle" x="5" y="12">
x
</text>
</g>
</g>
<g transform="translate(150,0)">
<path d="M0,0 l0,67 l130,0 l12,-13.5 l0,-21.5 l-0,-16 l0,-16 z" fill="black" stroke="none"/>
<path d="M3,3 l0,61 l125.5,0 l10.5,-12 l0,-18.5 l-0,-17.5 l0,-14.5 z" fill="grey" stroke="none"/>
<g transform="translate(0,0)">
<path d="M0,0 l-12,16 l12,16 l142,0 l-0,-16 l0,-16 z" fill="black" stroke="none"/>
<text dominant-baseline="middle" fill="white" font-family="monospace" font-size="16" text-anchor="middle" x="44" y="16">
uint16_t
</text>
</g>
<g transform="translate(100,4)">
<path d="M0,0 a4,4,0,0,0,0,24 l10,0 a4,4,0,0,0,0,-24 z" fill="white" stroke="none"/>
<text dominant-baseline="middle" fill="black" font-family="monospace" font-size="16" text-anchor="middle" x="5" y="12">
y
</text>
</g>
</g>
<g transform="translate(310,0)">
<path d="M0,0 l0,131 l130,0 l12,-13.5 l0,-85.5 l-0,-16 l0,-16 z" fill="black" stroke="none"/>
<path d="M3,3 l0,125 l125.5,0 l10.5,-12 l0,-82.5 l-0,-17.5 l0,-14.5 z" fill="grey" stroke="none"/>
<g transform="translate(0,0)">
<path d="M0,0 l-12,16 l12,16 l142,0 l-0,-16 l0,-16 z" fill="black" stroke="none"/>
<text dominant-baseline="middle" fill="white" font-family="monospace" font-size="16" text-anchor="middle" x="44" y="16">
uint32_t
</text>
</g>
<g transform="translate(100,4)">
<path d="M0,0 a4,4,0,0,0,0,24 l10,0 a4,4,0,0,0,0,-24 z" fill="white" stroke="none"/>
<text dominant-baseline="middle" fill="black" font-family="monospace" font-size="16" text-anchor="middle" x="5" y="12">
z
</text>
</g>
</g>
<g transform="translate(470,0)">
<path d="M0,0 l-12,16 l12,16 l124,0 l-0,-16 l0,-16 z" fill="black" stroke="none"/>
<text dominant-baseline="middle" fill="white" font-family="monospace" font-size="16" text-anchor="middle" x="29" y="16">
Point
</text>
</g>
<g transform="translate(552,4)">
<path d="M0,0 a4,4,0,0,0,0,24 l10,0 a4,4,0,0,0,0,-24 z" fill="white" stroke="none"/>
<text dominant-baseline="middle" fill="black" font-family="monospace" font-size="16" text-anchor="middle" x="5" y="12">
c
</text>
</g>
</g>
<g transform="translate(600,0)">
<path d="M0,0 l-12,16 l12,16 l106,0 l-0,-16 l0,-16 z" fill="black" stroke="none"/>
<text dominant-baseline="middle" fill="white" font-family="monospace" font-size="16" text-anchor="middle" x="44" y="16">
Triangle
</text>
</g>
</g>
</svg>